<?xml version="1.0" encoding="utf-8"?>
<!-- Generator: Adobe Illustrator 21.1.0, SVG Export Plug-In . SVG Version: 6.00 Build 0)  -->
<svg version="1.1" xmlns="http://www.w3.org/2000/svg" xmlns:xlink="http://www.w3.org/1999/xlink" x="0px" y="0px" width="304px"
	 height="367px" viewBox="0 0 304 367" enable-background="new 0 0 304 367" xml:space="preserve">
<g id="Livello_1">
	<rect fill="#7FCBCD" width="304" height="367"/>
</g>
<g id="Livello_2">
	<g>
		<path fill="#FFFFFF" d="M21.453,50.877l5.64-15.532h1.196l5.663,15.532h-1.291l-1.602-4.468h-6.81l-1.601,4.468H21.453z
			 M28.622,39.55l-0.979-2.891l-0.933,2.867l-2.078,5.807h6.046L28.622,39.55z"/>
		<path fill="#FFFFFF" d="M39.236,35.345h3.919c3.799,0,5.257,1.433,5.257,4.588c0,2.198-1.243,3.656-3.035,4.229l3.943,6.715
			h-1.458l-3.751-6.453h-3.656v6.453h-1.218V35.345z M47.122,40.028c0-2.629-1.196-3.536-3.872-3.536h-2.796v6.81h2.916
			C45.449,43.302,47.122,42.561,47.122,40.028z"/>
		<path fill="#FFFFFF" d="M55.085,35.345h5.21c5.328,0,6.763,3.919,6.763,7.671c0,4.397-1.363,7.862-6.954,7.862h-5.018V35.345z
			 M56.303,36.492v13.239h4.015c4.731,0,5.448-3.011,5.448-6.62c0-3.201-1.148-6.619-5.448-6.619H56.303z"/>
		<path fill="#FFFFFF" d="M83.478,35.345h1.219v9.559c0,3.201-0.813,6.212-5.76,6.212c-4.874,0-5.735-2.557-5.735-5.95v-9.821h1.219
			v9.798c0,3.655,1.362,4.898,4.539,4.898c3.274,0,4.517-1.529,4.517-5.137V35.345z"/>
		<path fill="#FFFFFF" d="M92.875,35.345v15.532h-1.218V35.345H92.875z"/>
		<path fill="#FFFFFF" d="M101.168,50.877h-1.17V35.345h1.194l7.313,10.419l2.151,3.154l-0.025-2.222V35.345h1.172v15.532h-1.172
			l-7.288-10.419l-2.198-3.225l0.024,2.724V50.877z"/>
		<path fill="#FFFFFF" d="M131.736,43.159c0,4.659-2.771,7.957-6.905,7.957c-4.612,0-6.739-3.154-6.739-7.981
			c0-4.661,2.534-8.006,6.906-8.006C129.587,35.13,131.736,38.38,131.736,43.159z M130.447,43.159c0-4.158-1.578-6.906-5.448-6.906
			c-3.919,0-5.616,2.725-5.616,6.883s1.482,6.858,5.448,6.858C128.63,49.993,130.447,47.029,130.447,43.159z"/>
		<path fill="#FFFFFF" d="M156.215,50.303c-1.004,0.526-2.318,0.813-3.968,0.813c-4.134,0-7.097-2.103-7.097-7.862
			c0-5.257,2.867-8.124,7.217-8.124c1.553,0,2.915,0.383,3.608,0.789l-0.43,1.289c-0.74-0.596-1.958-0.955-3.154-0.955
			c-4.11,0-5.95,2.605-5.95,6.954c0,4.588,1.912,6.786,5.855,6.786c1.601,0,3.034-0.43,3.584-0.789L156.215,50.303z"/>
		<path fill="#FFFFFF" d="M162.074,35.345h3.919c3.799,0,5.257,1.433,5.257,4.588c0,2.198-1.243,3.656-3.035,4.229l3.943,6.715
			H170.7l-3.751-6.453h-3.656v6.453h-1.218V35.345z M169.96,40.028c0-2.629-1.196-3.536-3.872-3.536h-2.796v6.81h2.916
			C168.286,43.302,169.96,42.561,169.96,40.028z"/>
		<path fill="#FFFFFF" d="M186.5,35.345v1.147h-7.36v5.831h6.5v1.123h-6.5v6.285h7.36v1.147h-8.578V35.345H186.5z"/>
		<path fill="#FFFFFF" d="M190.996,50.877l5.64-15.532h1.196l5.663,15.532h-1.291l-1.602-4.468h-6.81l-1.601,4.468H190.996z
			 M198.165,39.55l-0.979-2.891l-0.933,2.867l-2.078,5.807h6.046L198.165,39.55z"/>
		<path fill="#FFFFFF" d="M216.858,36.492h-4.923v14.386h-1.219V36.492h-4.946v-1.147h11.088V36.492z"/>
		<path fill="#FFFFFF" d="M230.601,35.345v1.147h-7.36v5.831h6.5v1.123h-6.5v6.285h7.36v1.147h-8.578V35.345H230.601z"/>
		<path fill="#FFFFFF" d="M246.163,35.345v15.532h-1.218V35.345H246.163z"/>
		<path fill="#FFFFFF" d="M260.145,47.149c0-4.541-7.623-2.964-7.623-8.101c0-2.342,2.008-3.919,4.517-3.919
			c1.744,0,3.106,0.574,3.799,0.979l-0.43,1.291c-0.74-0.596-2.055-1.147-3.345-1.147c-2.031,0-3.274,1.052-3.274,2.676
			c0,4.158,7.647,2.701,7.647,8.029c0,2.39-2.198,4.158-4.898,4.158c-2.056,0-3.609-0.908-4.302-1.314l0.43-1.291
			c0.74,0.598,2.342,1.529,3.895,1.529C258.377,50.041,260.145,49.062,260.145,47.149z"/>
		<path fill="#FFFFFF" d="M24.464,81.819h-1.17V66.287h1.194l7.313,10.419l2.151,3.154l-0.024-2.222V66.287h1.17v15.532h-1.17
			L26.639,71.4l-2.198-3.225l0.024,2.724V81.819z"/>
		<path fill="#FFFFFF" d="M55.031,74.101c0,4.659-2.771,7.957-6.905,7.957c-4.612,0-6.739-3.154-6.739-7.981
			c0-4.661,2.534-8.006,6.906-8.006C52.882,66.072,55.031,69.322,55.031,74.101z M53.742,74.101c0-4.158-1.578-6.906-5.448-6.906
			c-3.919,0-5.616,2.725-5.616,6.883c0,4.158,1.482,6.858,5.448,6.858C51.925,80.935,53.742,77.971,53.742,74.101z"/>
		<path fill="#FFFFFF" d="M72.841,77.064l0.932,3.441l0.717-3.489l2.437-10.729h1.172l-3.751,15.532h-1.196l-3.082-10.18
			l-1.123-3.679l-1.004,3.728l-2.891,10.131h-1.194L59.65,66.287h1.243l2.749,10.634l0.835,3.584l0.909-3.536l3.01-10.467h1.267
			L72.841,77.064z"/>
		<path fill="#FFFFFF" d="M89.958,81.819l5.64-15.532h1.196l5.663,15.532h-1.291l-1.602-4.468h-6.81l-1.601,4.468H89.958z
			 M97.127,70.492l-0.979-2.891l-0.933,2.867l-2.078,5.807h6.046L97.127,70.492z"/>
		<path fill="#FFFFFF" d="M110.562,77.541l1.004,3.059l0.932-3.034l3.895-11.279h1.17l-5.448,15.532h-1.194l-5.855-15.532h1.243
			L110.562,77.541z"/>
		<path fill="#FFFFFF" d="M120.34,81.819l5.64-15.532h1.196l5.663,15.532h-1.291l-1.602-4.468h-6.81l-1.601,4.468H120.34z
			 M127.509,70.492l-0.979-2.891l-0.933,2.867l-2.078,5.807h6.046L127.509,70.492z"/>
		<path fill="#FFFFFF" d="M139.341,66.287v15.532h-1.218V66.287H139.341z"/>
		<path fill="#FFFFFF" d="M147.683,66.287v14.386h6.883v1.147h-8.101V66.287H147.683z"/>
		<path fill="#FFFFFF" d="M157.89,81.819l5.64-15.532h1.196l5.663,15.532h-1.291l-1.602-4.468h-6.81l-1.601,4.468H157.89z
			 M165.059,70.492l-0.979-2.891l-0.933,2.867l-2.078,5.807h6.046L165.059,70.492z"/>
		<path fill="#FFFFFF" d="M180.024,81.819h-4.349V66.287h4.087c3.177,0,4.515,1.314,4.515,3.895c0,1.433-0.788,2.724-2.293,3.321
			v0.048c2.652,0.501,3.416,2.246,3.416,3.967C185.4,80.219,183.847,81.819,180.024,81.819z M179.689,67.434h-2.796v5.807h2.677
			c1.911,0,3.416-1.196,3.416-3.035C182.986,68.318,181.983,67.434,179.689,67.434z M176.893,74.316v6.356h3.155
			c2.867,0,4.062-0.908,4.062-3.131c0-2.222-1.529-3.225-4.277-3.225H176.893z"/>
		<path fill="#FFFFFF" d="M192.812,66.287v14.386h6.883v1.147h-8.101V66.287H192.812z"/>
		<path fill="#FFFFFF" d="M213.439,66.287v1.147h-7.36v5.831h6.5v1.123h-6.5v6.285h7.36v1.147h-8.578V66.287H213.439z"/>
		<path fill="#FFFFFF" d="M240.591,74.101c0,4.659-2.771,7.957-6.905,7.957c-4.612,0-6.739-3.154-6.739-7.981
			c0-4.661,2.534-8.006,6.906-8.006C238.441,66.072,240.591,69.322,240.591,74.101z M239.302,74.101
			c0-4.158-1.578-6.906-5.448-6.906c-3.919,0-5.616,2.725-5.616,6.883c0,4.158,1.482,6.858,5.448,6.858
			C237.485,80.935,239.302,77.971,239.302,74.101z"/>
		<path fill="#FFFFFF" d="M248.028,81.819h-1.17V66.287h1.194l7.313,10.419l2.151,3.154l-0.025-2.222V66.287h1.172v15.532h-1.172
			L250.202,71.4l-2.198-3.225l0.024,2.724V81.819z"/>
		<path fill="#FFFFFF" d="M33.498,112.187C32.494,112.714,31.179,113,29.53,113c-4.134,0-7.097-2.103-7.097-7.862
			c0-5.257,2.867-8.124,7.217-8.124c1.553,0,2.915,0.383,3.608,0.789l-0.43,1.289c-0.74-0.596-1.958-0.955-3.154-0.955
			c-4.11,0-5.95,2.605-5.95,6.954c0,4.588,1.912,6.786,5.855,6.786c1.601,0,3.034-0.43,3.584-0.789L33.498,112.187z"/>
		<path fill="#FFFFFF" d="M50.204,97.229v15.532h-1.218v-7.503h-8.412v7.503h-1.218V97.229h1.218v6.906h8.412v-6.906H50.204z"/>
		<path fill="#FFFFFF" d="M57.333,97.229h3.919c3.799,0,5.257,1.433,5.257,4.588c0,2.198-1.243,3.656-3.035,4.229l3.943,6.715
			h-1.458l-3.751-6.453h-3.656v6.453h-1.218V97.229z M65.218,101.912c0-2.629-1.196-3.536-3.872-3.536h-2.796v6.81h2.916
			C63.545,105.186,65.218,104.445,65.218,101.912z"/>
		<path fill="#FFFFFF" d="M85.988,105.043c0,4.659-2.771,7.957-6.905,7.957c-4.612,0-6.739-3.154-6.739-7.981
			c0-4.661,2.534-8.006,6.906-8.006C83.838,97.014,85.988,100.264,85.988,105.043z M84.699,105.043c0-4.158-1.578-6.906-5.448-6.906
			c-3.919,0-5.616,2.725-5.616,6.883s1.482,6.858,5.448,6.858C82.882,111.877,84.699,108.913,84.699,105.043z"/>
		<path fill="#FFFFFF" d="M105.59,99.475l-1.267,3.321l-4.134,9.965h-1.194l-4.134-9.439l-1.482-3.465l0.024,3.274v9.63h-1.147
			V97.229h1.218l4.398,10.108l1.719,4.205l1.626-4.014l4.253-10.299h1.291v15.532h-1.17V99.475z"/>
		<path fill="#FFFFFF" d="M122.465,97.229v1.147h-7.36v5.831h6.5v1.123h-6.5v6.285h7.36v1.147h-8.578V97.229H122.465z"/>
		<path fill="#FFFFFF" d="M149.618,105.043c0,4.659-2.771,7.957-6.905,7.957c-4.612,0-6.739-3.154-6.739-7.981
			c0-4.661,2.534-8.006,6.906-8.006C147.468,97.014,149.618,100.264,149.618,105.043z M148.328,105.043
			c0-4.158-1.578-6.906-5.448-6.906c-3.919,0-5.616,2.725-5.616,6.883s1.482,6.858,5.448,6.858
			C146.511,111.877,148.328,108.913,148.328,105.043z"/>
		<path fill="#FFFFFF" d="M162.743,109.033c0-4.541-7.623-2.964-7.623-8.101c0-2.342,2.008-3.919,4.517-3.919
			c1.744,0,3.106,0.574,3.799,0.979l-0.43,1.291c-0.74-0.596-2.055-1.147-3.345-1.147c-2.031,0-3.274,1.052-3.274,2.676
			c0,4.158,7.647,2.701,7.647,8.029c0,2.39-2.198,4.158-4.898,4.158c-2.056,0-3.609-0.908-4.302-1.314l0.43-1.291
			c0.74,0.598,2.342,1.529,3.895,1.529C160.975,111.925,162.743,110.945,162.743,109.033z"/>
		<path fill="#FFFFFF" d="M178.068,97.229h5.21c5.328,0,6.763,3.919,6.763,7.671c0,4.397-1.363,7.862-6.954,7.862h-5.018V97.229z
			 M179.286,98.375v13.239h4.015c4.731,0,5.448-3.011,5.448-6.62c0-3.201-1.148-6.619-5.448-6.619H179.286z"/>
		<path fill="#FFFFFF" d="M204.932,97.229v1.147h-7.36v5.831h6.5v1.123h-6.5v6.285h7.36v1.147h-8.578V97.229H204.932z"/>
		<path fill="#FFFFFF" d="M214.806,108.483l1.004,3.059l0.932-3.034l3.895-11.279h1.17l-5.448,15.532h-1.194l-5.855-15.532h1.243
			L214.806,108.483z"/>
		<path fill="#FFFFFF" d="M228.382,97.229v15.532h-1.218V97.229H228.382z"/>
		<path fill="#FFFFFF" d="M245.711,112.187c-1.004,0.526-2.318,0.813-3.968,0.813c-4.134,0-7.097-2.103-7.097-7.862
			c0-5.257,2.867-8.124,7.217-8.124c1.553,0,2.915,0.383,3.608,0.789l-0.43,1.289c-0.74-0.596-1.96-0.955-3.154-0.955
			c-4.11,0-5.95,2.605-5.95,6.954c0,4.588,1.912,6.786,5.855,6.786c1.601,0,3.034-0.43,3.584-0.789L245.711,112.187z"/>
		<path fill="#FFFFFF" d="M260.148,97.229v1.147h-7.36v5.831h6.5v1.123h-6.5v6.285h7.36v1.147h-8.578V97.229H260.148z"/>
		<path fill="#FFFFFF" d="M273.343,109.033c0-4.541-7.623-2.964-7.623-8.101c0-2.342,2.008-3.919,4.517-3.919
			c1.744,0,3.106,0.574,3.799,0.979l-0.43,1.291c-0.74-0.596-2.055-1.147-3.345-1.147c-2.031,0-3.274,1.052-3.274,2.676
			c0,4.158,7.647,2.701,7.647,8.029c0,2.39-2.198,4.158-4.898,4.158c-2.056,0-3.609-0.908-4.302-1.314l0.43-1.291
			c0.74,0.598,2.342,1.529,3.895,1.529C271.575,111.925,273.343,110.945,273.343,109.033z"/>
		<path fill="#FFFFFF" d="M281.639,111.327c0.479,0,0.908,0.24,0.908,0.813c0,0.598-0.429,0.86-0.908,0.86
			c-0.525,0-0.884-0.263-0.884-0.86C280.755,111.591,281.114,111.327,281.639,111.327z M282.213,97.229v5.472l-0.144,5.735h-0.884
			l-0.191-5.735v-5.472H282.213z"/>
	</g>
	<g>
		<g>
			<path fill="#2C353A" d="M222.638,152H81.612c-1.956,0-3.556,1.6-3.556,3.554v93.986h148.135v-93.986
				C226.191,153.6,224.591,152,222.638,152z"/>
			<rect x="84.647" y="158.123" fill="#ECECED" width="135.102" height="86.807"/>
			<path fill="#BDC7C7" d="M241.262,258.313H62.738c-0.532,0-1.06-0.094-1.56-0.277l-8.133-2.982h197.912l-8.134,2.982
				C242.323,258.219,241.795,258.313,241.262,258.313z"/>
			<circle fill="#868789" cx="151.987" cy="155.668" r="0.629"/>
			<rect x="135.902" y="249.525" fill="#BDC7C7" width="32.072" height="3.257"/>
			<path fill="#ECF1F1" d="M165.431,249.525v0.287c0,1.309-1.071,2.379-2.379,2.379h-22.205c-1.307,0-2.377-1.07-2.377-2.377v-0.289
				H53.044v5.528h197.912v-5.528H165.431z"/>
		</g>
		<g>
			<g>
				<path fill="none" stroke="#E75300" stroke-width="0.5498" stroke-miterlimit="10" d="M163.513,204.855
					c-6.611,0.002-12.001-5.224-12.266-11.771l0,0c0-1.612,1.304-2.919,2.916-2.919c1.612,0,2.909,1.325,2.909,2.937v-0.018
					c-0.264,6.547-5.655,11.773-12.266,11.771"/>
				<g>
					<path fill="#00959A" d="M189.613,209.486c-0.356,0-0.719-0.025-1.077-0.079c-2.999-0.428-5.005-2.582-6.129-4.239
						c-1.126,1.656-3.132,3.813-6.13,4.24c-0.357,0.051-0.719,0.077-1.077,0.077c-1.865,0-3.615-0.694-4.932-1.954
						c-1.329-1.27-2.063-2.976-2.063-4.793c0-1.82,0.734-3.523,2.065-4.796c1.315-1.26,3.067-1.952,4.933-1.952
						c0.356,0,0.717,0.025,1.074,0.077c2.999,0.428,5.004,2.582,6.13,4.238c1.124-1.656,3.13-3.81,6.129-4.238
						c0.358-0.051,0.719-0.077,1.075-0.077c1.865,0,3.616,0.694,4.932,1.952c1.33,1.273,2.063,2.976,2.063,4.796
						c0,1.818-0.731,3.523-2.061,4.793C193.227,208.791,191.477,209.486,189.613,209.486 M183.736,202.738
						c0.585,1.116,2.313,3.899,5.138,4.304c0.248,0.034,0.497,0.053,0.74,0.053c2.537,0,4.602-1.954,4.602-4.357
						s-2.065-4.358-4.604-4.358c-0.242,0-0.492,0.017-0.736,0.053C186.049,198.836,184.321,201.62,183.736,202.738 M175.203,198.38
						c-2.541,0-4.607,1.954-4.607,4.358c0,2.403,2.064,4.357,4.603,4.357c0.243,0,0.492-0.019,0.74-0.053
						c2.825-0.404,4.553-3.187,5.139-4.304c-0.585-1.116-2.314-3.902-5.139-4.304C175.694,198.398,175.444,198.38,175.203,198.38"/>
					<rect x="173.274" y="202.078" fill="#00959A" width="4.201" height="1.354"/>
					<polygon fill="#00959A" points="191.498,202.078 190.077,202.078 190.077,200.654 188.718,200.654 188.718,202.078 
						187.297,202.078 187.297,203.432 188.718,203.432 188.718,204.855 190.077,204.855 190.077,203.432 191.498,203.432 					"/>
					<path fill="#F1C40F" d="M182.405,221.967c-10.597,0-19.219-8.622-19.219-19.219s8.622-19.219,19.219-19.219
						c10.598,0,19.219,8.622,19.219,19.219C201.624,213.346,193.003,221.967,182.405,221.967z M182.405,184.228
						c-10.213,0-18.52,8.308-18.52,18.52c0,10.212,8.308,18.52,18.52,18.52c10.212,0,18.52-8.308,18.52-18.52
						C200.925,192.537,192.617,184.228,182.405,184.228z"/>
				</g>
			</g>
			<g>
				<path fill="#E53029" d="M125.754,183.332c0,0,11.368-0.512,17.392,10.913c-3.183,0-18.359,0-18.359,0s-3.467-0.114-6.423,4.093
					c-0.852,1.762-1.762,3.581-0.739,7.161c-1.478-2.5-7.844-13.584-7.844-13.584S114.273,183.786,125.754,183.332z"/>
				<path fill="#FDD900" d="M142.555,212.338c0,0-5.242,10.099-18.149,9.603c1.592-2.756,9.182-15.898,9.182-15.898
					s1.832-2.945-0.331-7.608c-1.1-1.62-2.22-3.317-5.832-4.222c2.905-0.029,15.686,0.002,15.686,0.002
					S147.903,202.168,142.555,212.338z"/>
				<path fill="#66B44B" d="M109.035,212.414c0,0-6.125-9.591,0.759-20.519c1.591,2.757,9.176,15.901,9.176,15.901
					s1.634,3.059,6.755,3.518c1.952-0.142,3.982-0.264,6.572-2.939c-1.428,2.53-7.846,13.583-7.846,13.583
					S115.167,222.131,109.035,212.414z"/>
				<path fill="#61AB48" d="M124.406,222.034l2.582-10.776c0,0,2.839-0.222,5.219-2.833
					C130.73,211.023,124.406,222.034,124.406,222.034z"/>
				<circle fill="#FFFFFF" cx="125.707" cy="202.802" r="8.601"/>
				<linearGradient id="SVGID_1_" gradientUnits="userSpaceOnUse" x1="125.7066" y1="195.7413" x2="125.7066" y2="209.5349">
					<stop  offset="0" style="stop-color:#86BBE5"/>
					<stop  offset="1" style="stop-color:#116CB3"/>
				</linearGradient>
				<circle fill="url(#SVGID_1_)" cx="125.707" cy="202.802" r="7.162"/>
				<path fill="#F0CE00" d="M143.11,194.214l-10.634,3.118c0,0-1.604-2.353-5.052-3.12
					C130.412,194.202,143.11,194.214,143.11,194.214z"/>
				<path fill="#D92F27" d="M117.419,205.111c-1.494-2.588-7.637-13.197-7.637-13.197l7.877,7.792c0,0-0.81,1.665-0.503,4.043
					L117.419,205.111z"/>
			</g>
		</g>
	</g>
	<rect y="285" fill="#F1C40C" width="304" height="82"/>
	<g>
		<g>
			<path fill="#FFFFFF" d="M52.054,304.303v1.379c1.541,0.046,2.714,0.322,3.357,0.645l-0.414,1.08
				c-0.644-0.46-1.793-0.735-2.943-0.781v5.289c1.909,0.805,3.933,1.678,3.933,4.023c0,1.816-1.725,3.196-3.933,3.427v1.333h-0.92
				v-1.287c-1.886-0.023-3.265-0.552-3.909-0.92l0.414-1.081c0.667,0.506,2.069,1.035,3.495,1.081v-5.841
				c-1.816-0.735-3.633-1.541-3.633-3.702c0-1.794,1.563-3.013,3.633-3.22v-1.425H52.054z M51.134,311.522v-4.852
				c-1.518,0.184-2.438,1.012-2.438,2.207C48.696,310.235,49.777,310.925,51.134,311.522z M52.054,313.04v5.404
				c1.426-0.185,2.69-0.966,2.69-2.368C54.744,314.443,53.503,313.685,52.054,313.04z"/>
			<path fill="#FFFFFF" d="M72.177,311.845c0,3.357-0.966,8.14-5.771,8.14c-3.771,0-5.564-2.851-5.564-7.427
				c0-3.979,1.173-7.956,5.702-7.956C70.591,304.602,72.177,307.476,72.177,311.845z M70.981,312.12
				c0-2.851-0.506-6.438-4.576-6.438c-3.541,0-4.369,3.403-4.369,6.347c0,3.15,0.506,6.922,4.53,6.922
				C70.269,318.95,70.981,314.995,70.981,312.12z"/>
			<path fill="#FFFFFF" d="M78.159,318.375c0.482,0,0.873,0.23,0.873,0.782c0,0.574-0.391,0.827-0.873,0.827
				c-0.506,0-0.852-0.253-0.852-0.827C77.308,318.628,77.653,318.375,78.159,318.375z"/>
			<path fill="#FFFFFF" d="M88.831,304.602c3.771,0,5.15,2.966,5.15,7.128c0,5.036-2.989,8.255-8.094,8.255
				c-0.391,0-0.828-0.022-1.242-0.068v-1.104c0.46,0.068,0.92,0.092,1.38,0.092c3.702,0,6.669-2.254,6.761-6.669
				c-1.196,0.828-2.599,1.426-4.53,1.426c-2.276,0-4.323-1.288-4.323-4.07C83.933,306.647,85.75,304.602,88.831,304.602z
				 M88.854,312.604c1.472,0,2.897-0.644,3.933-1.495c-0.046-2.759-0.851-5.473-4.14-5.473c-2.46,0-3.495,1.771-3.495,3.656
				C85.151,311.568,86.278,312.604,88.854,312.604z"/>
			<path fill="#FFFFFF" d="M103.573,304.602c3.771,0,5.15,2.966,5.15,7.128c0,5.036-2.989,8.255-8.094,8.255
				c-0.391,0-0.828-0.022-1.242-0.068v-1.104c0.46,0.068,0.92,0.092,1.38,0.092c3.702,0,6.669-2.254,6.761-6.669
				c-1.196,0.828-2.599,1.426-4.53,1.426c-2.276,0-4.323-1.288-4.323-4.07C98.675,306.647,100.492,304.602,103.573,304.602z
				 M103.596,312.604c1.472,0,2.897-0.644,3.933-1.495c-0.046-2.759-0.851-5.473-4.14-5.473c-2.46,0-3.495,1.771-3.495,3.656
				C99.894,311.568,101.021,312.604,103.596,312.604z"/>
			<path fill="#FFFFFF" d="M122.248,304.809h3.909c3.656,0,5.036,1.609,5.036,4.645c0,3.013-2.047,4.668-4.691,4.668h-3.081v5.634
				h-1.173V304.809z M129.951,309.545c0-2.529-1.126-3.633-3.702-3.633h-2.828v7.174h2.943
				C128.365,313.086,129.951,312.144,129.951,309.545z"/>
			<path fill="#FFFFFF" d="M145.016,304.809v1.104h-7.082v5.61h6.255v1.081h-6.255v6.048h7.082v1.104h-8.255v-14.946H145.016z"/>
			<path fill="#FFFFFF" d="M151.113,304.809h3.771c3.656,0,5.059,1.379,5.059,4.415c0,2.115-1.195,3.518-2.92,4.069l3.794,6.462
				h-1.402l-3.61-6.209h-3.519v6.209h-1.173V304.809z M158.702,309.315c0-2.529-1.15-3.403-3.726-3.403h-2.69v6.554h2.806
				C157.092,312.466,158.702,311.753,158.702,309.315z"/>
			<path fill="#FFFFFF" d="M186.896,306.97l-1.219,3.196l-3.978,9.589h-1.15l-3.978-9.083l-1.426-3.334l0.022,3.15v9.267h-1.104
				v-14.946h1.173l4.231,9.727l1.655,4.047l1.563-3.863l4.094-9.91h1.241v14.946h-1.127V306.97z"/>
			<path fill="#FFFFFF" d="M207.205,312.327c0,4.484-2.667,7.657-6.646,7.657c-4.438,0-6.484-3.035-6.484-7.68
				c0-4.484,2.438-7.703,6.646-7.703C205.136,304.602,207.205,307.729,207.205,312.327z M205.964,312.327
				c0-4.001-1.518-6.646-5.243-6.646c-3.771,0-5.403,2.622-5.403,6.623s1.425,6.6,5.242,6.6
				C204.216,318.904,205.964,316.053,205.964,312.327z"/>
			<path fill="#FFFFFF" d="M214.36,319.755h-1.127v-14.946h1.149l7.037,10.025l2.069,3.035l-0.022-2.139v-10.922h1.126v14.946
				h-1.126l-7.014-10.025l-2.116-3.104l0.023,2.621V319.755z"/>
			<path fill="#FFFFFF" d="M240.234,305.912h-4.737v13.843h-1.173v-13.843h-4.76v-1.104h10.67V305.912z"/>
			<path fill="#FFFFFF" d="M255.644,304.809v14.946h-1.172v-7.221h-8.095v7.221h-1.173v-14.946h1.173v6.646h8.095v-6.646H255.644z"
				/>
			<path fill="#FFFFFF" d="M45.959,332.809h5.335c5.358,0,7.221,3.219,7.221,7.266c0,4.323-1.426,7.681-7.289,7.681h-5.267V332.809z
				 M48.396,334.854v10.808h3.013c3.817,0,4.507-2.253,4.507-5.266c0-2.989-0.942-5.542-4.668-5.542H48.396z"/>
			<path fill="#FFFFFF" d="M76.983,340.305c0,4.392-2.69,7.68-7.083,7.68c-4.369,0-6.967-2.828-6.967-7.611
				c0-4.507,2.667-7.771,7.036-7.771C74.293,332.602,76.983,335.153,76.983,340.305z M74.408,340.305
				c0-3.841-1.357-5.657-4.438-5.657c-3.059,0-4.438,1.886-4.438,5.726c0,3.496,1.242,5.565,4.369,5.565
				C72.936,345.938,74.408,343.892,74.408,340.305z"/>
			<path fill="#FFFFFF" d="M93.889,341.086l0.942,4.508l0.828-4.576l1.609-8.209h2.346l-3.334,14.946h-3.104l-1.84-6.898
				l-1.104-5.151l-1.035,5.197l-1.747,6.853h-3.013l-3.61-14.946h2.507l1.862,8.301l0.805,4.484l0.896-4.461l2.024-8.118h2.851
				L93.889,341.086z"/>
			<path fill="#FFFFFF" d="M106.794,347.755h-2.323v-14.946h2.599l5.151,7.404l2.552,3.84l-0.046-3.519v-7.726h2.3v14.946h-2.438
				l-5.197-7.496l-2.621-3.979l0.023,3.909V347.755z"/>
			<path fill="#FFFFFF" d="M125.584,332.809v12.854h6.301v2.093h-8.738v-14.946H125.584z"/>
			<path fill="#FFFFFF" d="M149.502,340.305c0,4.392-2.69,7.68-7.083,7.68c-4.369,0-6.967-2.828-6.967-7.611
				c0-4.507,2.667-7.771,7.036-7.771C146.812,332.602,149.502,335.153,149.502,340.305z M146.926,340.305
				c0-3.841-1.356-5.657-4.438-5.657c-3.059,0-4.438,1.886-4.438,5.726c0,3.496,1.242,5.565,4.369,5.565
				C145.455,345.938,146.926,343.892,146.926,340.305z"/>
			<path fill="#FFFFFF" d="M152.978,347.755l5.289-14.946h2.667l5.335,14.946h-2.598l-1.265-3.679h-5.727l-1.219,3.679H152.978z
				 M160.704,339.062l-1.195-3.863l-1.173,3.933l-0.989,2.989h4.393L160.704,339.062z"/>
			<path fill="#FFFFFF" d="M170.595,332.809h5.335c5.358,0,7.221,3.219,7.221,7.266c0,4.323-1.426,7.681-7.289,7.681h-5.267V332.809
				z M173.032,334.854v10.808h3.013c3.817,0,4.507-2.253,4.507-5.266c0-2.989-0.942-5.542-4.668-5.542H173.032z"/>
			<path fill="#FFFFFF" d="M198.241,347.755h-2.323v-14.946h2.599l5.151,7.404l2.552,3.84l-0.046-3.519v-7.726h2.3v14.946h-2.438
				l-5.197-7.496l-2.621-3.979l0.023,3.909V347.755z"/>
			<path fill="#FFFFFF" d="M227.771,340.305c0,4.392-2.69,7.68-7.083,7.68c-4.369,0-6.967-2.828-6.967-7.611
				c0-4.507,2.667-7.771,7.036-7.771C225.08,332.602,227.771,335.153,227.771,340.305z M225.195,340.305
				c0-3.841-1.357-5.657-4.438-5.657c-3.059,0-4.438,1.886-4.438,5.726c0,3.496,1.242,5.565,4.369,5.565
				C223.723,345.938,225.195,343.892,225.195,340.305z"/>
			<path fill="#FFFFFF" d="M244.676,341.086l0.942,4.508l0.828-4.576l1.609-8.209h2.346l-3.334,14.946h-3.104l-1.84-6.898
				l-1.104-5.151l-1.035,5.197l-1.747,6.853h-3.013l-3.61-14.946h2.507l1.862,8.301l0.805,4.484l0.896-4.461l2.024-8.118h2.851
				L244.676,341.086z"/>
			<path fill="#FFFFFF" d="M256.66,345.202c0.827,0,1.494,0.438,1.494,1.38c0,0.92-0.574,1.426-1.494,1.426
				c-0.966,0-1.495-0.506-1.495-1.426C255.165,345.708,255.74,345.202,256.66,345.202z M257.764,332.809v5.127l-0.229,4.853h-1.771
				l-0.253-4.875v-5.104H257.764z"/>
		</g>
	</g>
</g>
</svg>
