<?xml version="1.0" encoding="utf-8"?>
<!-- Generator: Adobe Illustrator 19.0.0, SVG Export Plug-In . SVG Version: 6.00 Build 0)  -->
<svg version="1.1" id="HPTX" xmlns="http://www.w3.org/2000/svg" xmlns:xlink="http://www.w3.org/1999/xlink" x="0px" y="0px"
	 viewBox="0 0 96.4 96.4" style="enable-background:new 0 0 96.4 96.4;" xml:space="preserve">
<style type="text/css">
	.st0{fill:#4C3D83;}
	.st1{fill:#FFFFFF;}
	.st2{fill:#4C3D83;stroke:#493088;stroke-miterlimit:10;}
	.st3{fill:#706CAF;}
	.st4{fill:#233F52;}
	.st5{fill:#1488CA;}
	.st6{fill:#0088CC;}
	.st7{fill:#1D1D1B;}
</style>
<g id="HPTX_VIDEOJUEGOS_ICONO">
	<rect x="-611.9" y="3653.6" class="st0" width="240.9" height="240.9"/>
	<path class="st1" d="M-431.2,3723.9v-10h-10v-10h-100.4v10h-10v10h-10v70.3h10v10h10v10h90.4v9.9h10v0.2v10h10v10h10v-120.5H-431.2
		z M-531.8,3794.1v-10h-9.8v-50.2h10v-10h80.3v10h10v70.3h-10v-10H-531.8z"/>
</g>
<g id="HPTX_VIDEOJUEGOS">
	<path class="st2" d="M-1140.9,3754.1v13.3h33.2v6.6h6.6v19.9h-6.6v6.6v0.1h-39.9v-6.6h-6.6v-6.6h39.5v-6.6h-32.9v-6.6h-6.6v-26.7
		h6.6v-6.6h39.9v6.6h6.6v6.6H-1140.9z M-1160.9,3787.3h-6.6v6.6h-6.6v6.6h-26.6v-6.6h-6.6v-6.6h-6.6v-33.2h6.6v-6.6h6.6v-6.6h26.6
		v6.6h6.6v6.6h6.6V3787.3z M-1180.8,3780.7h6.3v-19.9h-6.3v-6.6h-13.3v6.6h-6.6v19.9h6.6v6.6h13.3V3780.7z M-1220.7,3813.9h-6.6v6.6
		h-6.6v6.6h-26.8v-6.6h-6.6v-6.6h26.8v-6.6h6.6v-6.6h-26.6v-6.6h-6.6v-6.6h-6.6v-33.2h6.6v-6.6h6.6v-6.6h26.6v6.6h6.6v6.6h6.6
		V3813.9z M-1234,3780.7v-19.9h-6.6v-6.6h-13.3v6.6h-6.6v19.9h6.6v6.6h13.3v-6.6H-1234z M-1320.3,3780.7v6.6h39.9v6.4h-6.6v6.9
		h-39.9v-6.6h-6.6v-46.5h6.6v-6.6h39.9v6.6h6.6v26.6h-6.6v6.6L-1320.3,3780.7z M-1293.8,3767.4v-13.3h-26.6v13.3H-1293.8z
		 M-1340.3,3740.8h-13.3v46.5h-19.9v-46.5h-13.3v53.2h6.6v6.6h33.2v-6.6h6.6V3740.8z M-1406.7,3720.9v13.3h13.3v-13.3H-1406.7z
		 M-1393.4,3740.8v79.7h-6.6v6.6h-13.3v-6.6h-6.6v-6.6h13.3v-73.1H-1393.4z M-1413.4,3787.3h-6.6v6.6h-6.6v6.6h-26.6v-6.6h-6.6v-6.6
		h-6.6v-33.2h6.6v-6.6h6.6v-6.6h26.6v6.6h6.6v6.6h6.6V3787.3z M-1433.3,3780.7h6.3v-19.9h-6.3v-6.6h-13.3v6.6h-6.6v19.9h6.6v6.6
		h13.3V3780.7z M-1513,3780.7v6.6h39.9v6.4h-6.6v6.9h-39.9v-6.6h-6.6v-46.5h6.6v-6.6h39.9v6.6h6.6v26.6h-6.6v6.6L-1513,3780.7z
		 M-1486.4,3767.4v-13.3h-26.6v13.3H-1486.4z M-1533,3720.9v79.7h-13.3v-6.6h-6.6v6.6h-19.9v-6.6h-6.6v-6h-6.6v-33.2h6.6v-6.6h6.6
		v-6.6h26.6v-20.5H-1533z M-1552.9,3787.3v-6.6h6.6v-19.9h-6.6v-6.6h-13.3v6.6h-7v19.9h7v6.6H-1552.9z M-1606,3800.6h13.3v-59.8
		h-13.3V3800.6z M-1592.8,3720.9v13.3h-13.3v-13.3H-1592.8z M-1612.7,3740.8h-13.3v40h-7v6.5h-6.3v-6.6h-6.6v-39.9h-13.3v46.5h6.6
		v6.6h6.6v6.6h19.9v-6.6h6.6v-6.9h6.6V3740.8z"/>
	<path class="st3" d="M-1679.1,3740.8v-6.6h-6.6v-6.6h-66.4v6.6h-6.6v6.6h-6.6v46.5h6.6v6.6h6.6v6.6h59.8v6.5h6.6v0.1v6.6h6.6v6.6
		h6.6v-79.7H-1679.1z M-1745.7,3787.3v-6.6h-6.5v-33.2h6.6v-6.6h53.2v6.6h6.6v46.5h-6.6v-6.6H-1745.7z"/>
</g>
<g id="HPTX_PODCAST">
	<path class="st4" d="M-606.7,3048.7v6.7h0.2c1.8-2.8,4-4.9,6.7-6.2c2.7-1.3,5.7-1.9,8.9-1.9c4.1,0,7.7,0.8,10.6,2.3
		c3,1.6,5.4,3.6,7.4,6.2c2,2.6,3.4,5.6,4.4,9c0.9,3.4,1.4,7,1.4,10.7c0,3.5-0.5,6.9-1.4,10.1c-0.9,3.2-2.4,6.1-4.3,8.6
		c-1.9,2.5-4.3,4.5-7.2,6c-2.9,1.5-6.2,2.2-10.1,2.2c-3.2,0-6.2-0.7-9-2c-2.7-1.3-5-3.3-6.7-5.8h-0.2v24.8h-14.4v-70.7H-606.7z
		 M-588,3090.3c1.6-0.9,2.9-2.2,3.9-3.7c1-1.5,1.7-3.3,2.1-5.3c0.4-2,0.6-4.1,0.6-6.2c0-2.1-0.2-4.2-0.7-6.2c-0.4-2-1.2-3.8-2.2-5.4
		c-1-1.6-2.3-2.9-3.9-3.9c-1.6-1-3.5-1.5-5.8-1.5c-2.4,0-4.3,0.5-5.9,1.5c-1.6,1-2.9,2.2-3.9,3.8c-1,1.6-1.7,3.3-2.1,5.4
		c-0.4,2-0.6,4.1-0.6,6.3c0,2.1,0.2,4.2,0.7,6.2c0.4,2,1.1,3.8,2.1,5.3c1,1.5,2.3,2.8,3.9,3.7c1.6,0.9,3.6,1.4,5.9,1.4
		C-591.6,3091.7-589.6,3091.2-588,3090.3z M-562.2,3063.6c1.3-3.4,3.1-6.3,5.5-8.7c2.4-2.4,5.2-4.3,8.5-5.6c3.3-1.3,7-2,11.1-2
		c4.1,0,7.9,0.7,11.2,2c3.3,1.3,6.2,3.2,8.6,5.6c2.4,2.4,4.2,5.3,5.5,8.7c1.3,3.4,1.9,7.2,1.9,11.4c0,4.2-0.6,8-1.9,11.4
		c-1.3,3.4-3.1,6.3-5.5,8.7c-2.4,2.4-5.2,4.2-8.6,5.5c-3.3,1.3-7.1,1.9-11.2,1.9c-4.1,0-7.8-0.6-11.1-1.9c-3.3-1.3-6.1-3.1-8.5-5.5
		c-2.4-2.4-4.2-5.3-5.5-8.7c-1.3-3.4-1.9-7.2-1.9-11.4C-564.1,3070.8-563.5,3067-562.2,3063.6z M-549.1,3081.1
		c0.4,2,1.1,3.8,2.1,5.4c1,1.6,2.3,2.9,3.9,3.8c1.6,0.9,3.6,1.4,6.1,1.4c2.4,0,4.5-0.5,6.1-1.4c1.7-0.9,3-2.2,4-3.8
		c1-1.6,1.7-3.4,2.1-5.4c0.4-2,0.6-4,0.6-6.1c0-2.1-0.2-4.2-0.6-6.2c-0.4-2-1.1-3.8-2.1-5.4c-1-1.6-2.3-2.8-4-3.8
		c-1.7-1-3.7-1.5-6.1-1.5c-2.4,0-4.5,0.5-6.1,1.5c-1.6,1-2.9,2.2-3.9,3.8c-1,1.6-1.7,3.3-2.1,5.4c-0.4,2-0.6,4.1-0.6,6.2
		C-549.7,3077.1-549.5,3079.1-549.1,3081.1z M-467.5,3094.5c-1.7,2.8-3.9,4.9-6.6,6.1c-2.7,1.2-5.8,1.9-9.3,1.9
		c-3.9,0-7.4-0.8-10.3-2.3c-3-1.5-5.4-3.6-7.3-6.2c-1.9-2.6-3.4-5.6-4.4-9c-1-3.4-1.5-6.9-1.5-10.5c0-3.5,0.5-6.9,1.5-10.2
		c1-3.3,2.4-6.2,4.4-8.7c1.9-2.5,4.3-4.5,7.2-6c2.9-1.5,6.3-2.3,10.1-2.3c3.1,0,6.1,0.7,8.9,2c2.8,1.3,5,3.3,6.6,5.8h0.2v-26.4h14.4
		v72.4h-13.7v-6.7H-467.5z M-468.1,3068.6c-0.4-2-1.1-3.7-2.1-5.3c-1-1.5-2.2-2.8-3.8-3.7c-1.6-0.9-3.5-1.4-5.9-1.4
		c-2.4,0-4.4,0.5-6,1.4c-1.6,0.9-2.9,2.2-3.9,3.8c-1,1.6-1.7,3.3-2.1,5.3c-0.4,2-0.7,4.1-0.7,6.2c0,2,0.2,4.1,0.7,6.1
		c0.5,2,1.2,3.8,2.3,5.4c1,1.6,2.4,2.9,4,3.9c1.6,1,3.5,1.5,5.7,1.5c2.4,0,4.3-0.5,5.9-1.4c1.6-0.9,2.9-2.2,3.8-3.8
		c0.9-1.6,1.6-3.4,2-5.4c0.4-2,0.6-4.1,0.6-6.3C-467.5,3072.6-467.7,3070.6-468.1,3068.6z M-422.9,3058.2c-2.3,0-4.2,0.5-5.8,1.6
		c-1.6,1-2.8,2.4-3.8,4.1c-1,1.7-1.7,3.5-2.1,5.5c-0.4,2-0.6,4-0.6,5.9c0,1.9,0.2,3.8,0.6,5.8c0.4,2,1.1,3.7,2,5.3
		c0.9,1.6,2.1,2.9,3.7,3.9c1.6,1,3.4,1.5,5.7,1.5c3.4,0,6.1-1,8-2.9c1.9-1.9,3-4.5,3.5-7.8h13.9c-0.9,7-3.6,12.3-8.1,15.9
		c-4.5,3.6-10.2,5.5-17.1,5.5c-3.9,0-7.5-0.7-10.8-2c-3.3-1.3-6.1-3.2-8.4-5.5c-2.3-2.4-4.1-5.2-5.4-8.5c-1.3-3.3-1.9-6.9-1.9-10.8
		c0-4.1,0.6-7.8,1.8-11.3c1.2-3.5,2.9-6.5,5.2-9c2.3-2.5,5.1-4.5,8.4-5.9c3.3-1.4,7.1-2.1,11.4-2.1c3.1,0,6.1,0.4,9,1.2
		c2.9,0.8,5.4,2,7.7,3.7c2.3,1.7,4.1,3.7,5.5,6.2c1.4,2.5,2.2,5.4,2.4,8.8h-14.1C-413.2,3061.2-416.8,3058.2-422.9,3058.2z
		 M-393.3,3064.9c0.2-3.4,1-6.2,2.5-8.4c1.5-2.2,3.4-4,5.7-5.4c2.3-1.4,4.9-2.3,7.8-2.9c2.9-0.6,5.8-0.9,8.7-0.9
		c2.6,0,5.3,0.2,8,0.6c2.7,0.4,5.2,1.1,7.4,2.2c2.2,1.1,4.1,2.6,5.5,4.5c1.4,1.9,2.1,4.5,2.1,7.7v27.3c0,2.4,0.1,4.6,0.4,6.8
		c0.3,2.2,0.7,3.8,1.4,4.9h-14.6c-0.3-0.8-0.5-1.6-0.7-2.5c-0.2-0.8-0.3-1.7-0.4-2.6c-2.3,2.4-5,4-8.1,5c-3.1,0.9-6.3,1.4-9.5,1.4
		c-2.5,0-4.8-0.3-7-0.9c-2.2-0.6-4.1-1.6-5.7-2.8c-1.6-1.3-2.9-2.9-3.8-4.9c-0.9-2-1.4-4.3-1.4-7c0-3,0.5-5.4,1.6-7.3
		c1-1.9,2.4-3.5,4.1-4.6c1.7-1.1,3.5-2,5.7-2.6c2.1-0.6,4.3-1,6.4-1.4c2.2-0.3,4.3-0.6,6.4-0.8c2.1-0.2,4-0.5,5.6-0.9
		c1.6-0.4,2.9-1,3.9-1.8c0.9-0.8,1.4-1.9,1.3-3.4c0-1.6-0.3-2.8-0.8-3.7c-0.5-0.9-1.2-1.6-2-2.1c-0.8-0.5-1.8-0.8-2.9-1
		c-1.1-0.2-2.3-0.3-3.6-0.3c-2.8,0-5.1,0.6-6.7,1.8c-1.6,1.2-2.6,3.2-2.8,6.1H-393.3z M-360,3075.5c-0.6,0.5-1.4,1-2.3,1.3
		c-0.9,0.3-1.9,0.6-2.9,0.8c-1,0.2-2.1,0.4-3.3,0.5c-1.2,0.1-2.3,0.3-3.4,0.5c-1.1,0.2-2.1,0.5-3.2,0.8c-1,0.3-2,0.8-2.7,1.4
		c-0.8,0.6-1.4,1.3-1.9,2.2c-0.5,0.9-0.7,2-0.7,3.3c0,1.3,0.2,2.4,0.7,3.2c0.5,0.9,1.1,1.6,1.9,2.1c0.8,0.5,1.8,0.9,2.8,1.1
		c1.1,0.2,2.2,0.3,3.3,0.3c2.8,0,5-0.5,6.6-1.4c1.6-0.9,2.7-2.1,3.4-3.4c0.7-1.3,1.2-2.7,1.4-4c0.2-1.4,0.3-2.4,0.3-3.2V3075.5z
		 M-326.2,3088.1c0.6,1.1,1.5,2,2.5,2.7c1,0.7,2.2,1.2,3.5,1.6c1.3,0.3,2.7,0.5,4.1,0.5c1,0,2.1-0.1,3.2-0.4c1.1-0.2,2.1-0.6,3-1.1
		c0.9-0.5,1.7-1.2,2.3-2c0.6-0.8,0.9-1.9,0.9-3.2c0-2.2-1.4-3.8-4.3-4.9c-2.9-1.1-6.9-2.2-12-3.2c-2.1-0.5-4.1-1-6.1-1.7
		c-2-0.6-3.8-1.5-5.3-2.5c-1.6-1-2.8-2.4-3.8-4c-0.9-1.6-1.4-3.5-1.4-5.8c0-3.4,0.7-6.1,2-8.3c1.3-2.2,3.1-3.9,5.2-5.1
		c2.2-1.2,4.6-2.1,7.3-2.6c2.7-0.5,5.5-0.8,8.3-0.8c2.8,0,5.6,0.3,8.3,0.8c2.7,0.5,5,1.5,7.1,2.7c2.1,1.3,3.8,3,5.2,5.1
		c1.4,2.1,2.2,4.8,2.5,8.1h-13.7c-0.2-2.8-1.3-4.6-3.1-5.6c-1.9-1-4.1-1.5-6.7-1.5c-0.8,0-1.7,0.1-2.6,0.2c-0.9,0.1-1.8,0.3-2.6,0.7
		c-0.8,0.3-1.4,0.8-2,1.5c-0.5,0.6-0.8,1.5-0.8,2.6c0,1.3,0.5,2.3,1.4,3.1c0.9,0.8,2.2,1.5,3.7,2c1.5,0.5,3.3,1,5.2,1.4
		c2,0.4,4,0.8,6,1.3c2.1,0.5,4.1,1,6.1,1.7c2,0.7,3.8,1.6,5.3,2.7c1.6,1.1,2.8,2.5,3.8,4.2c0.9,1.7,1.4,3.7,1.4,6.1
		c0,3.4-0.7,6.3-2.1,8.7c-1.4,2.3-3.2,4.2-5.4,5.6c-2.2,1.4-4.8,2.4-7.7,3c-2.9,0.6-5.8,0.9-8.8,0.9c-3,0-6-0.3-8.9-0.9
		c-2.9-0.6-5.5-1.6-7.8-3c-2.3-1.4-4.1-3.3-5.6-5.6c-1.5-2.3-2.2-5.3-2.4-8.8h13.7C-327.1,3085.7-326.8,3087-326.2,3088.1z
		 M-256.8,3048.7v9.6h-10.5v25.9c0,2.4,0.4,4.1,1.2,4.9c0.8,0.8,2.4,1.2,4.9,1.2c0.8,0,1.6,0,2.3-0.1c0.7-0.1,1.5-0.2,2.1-0.3v11.1
		c-1.2,0.2-2.6,0.3-4.1,0.4c-1.5,0.1-2.9,0.1-4.4,0.1c-2.2,0-4.3-0.2-6.3-0.5c-2-0.3-3.8-0.9-5.3-1.8c-1.5-0.9-2.7-2.1-3.6-3.8
		c-0.9-1.6-1.3-3.7-1.3-6.4v-30.9h-8.7v-9.6h8.7V3033h14.4v15.7H-256.8z"/>
	<path class="st5" d="M-632.6,3071.8c0-18.6-15.1-33.7-33.7-33.7h-26c-18.6,0-33.7,15.1-33.7,33.7c0,18.6,15.1,33.7,33.7,33.7h13
		h23.4l23.3,23.3c0,0,0-41.1,0-56.8C-632.6,3071.9-632.6,3071.8-632.6,3071.8z M-644.8,3093.3v6l-6-6h0l0,0h-41.5
		c-11.9,0-21.5-9.6-21.5-21.5c0-11.9,9.6-21.5,21.5-21.5h26c11.9,0,21.5,9.6,21.5,21.5l0,0h0v8.8V3093.3z"/>
</g>
<g id="HPTX_BACKSTAGE">
	<path class="st4" d="M-1592.5,3033.4v22h0.2c1.7-2.7,4.1-4.6,7.1-5.8c3-1.2,6-1.8,9.2-1.8c2.6,0,5.2,0.5,7.7,1.6
		c2.5,1.1,4.8,2.7,6.9,4.9c2,2.2,3.7,5,5,8.4c1.3,3.4,1.9,7.5,1.9,12.2c0,4.7-0.6,8.8-1.9,12.2c-1.3,3.4-2.9,6.2-5,8.5
		c-2,2.2-4.3,3.8-6.9,4.9c-2.5,1.1-5.1,1.6-7.7,1.6c-3.8,0-7.2-0.6-10.2-1.8s-5.3-3.2-6.8-6.1h-0.2v6.6h-13.5v-67.4H-1592.5z
		 M-1569.5,3068.7c-0.5-2-1.2-3.8-2.2-5.3c-1-1.5-2.2-2.8-3.8-3.6c-1.5-0.9-3.3-1.4-5.4-1.4c-2.1,0-3.9,0.5-5.4,1.4
		c-1.5,0.9-2.8,2.1-3.8,3.6c-1,1.5-1.7,3.3-2.2,5.3c-0.5,2-0.7,4.1-0.7,6.3c0,2.1,0.2,4.2,0.7,6.2c0.5,2,1.2,3.8,2.2,5.3
		c1,1.5,2.3,2.8,3.8,3.6c1.5,0.9,3.3,1.4,5.4,1.4c2.1,0,3.9-0.5,5.4-1.4c1.5-0.9,2.8-2.1,3.8-3.6c1-1.5,1.7-3.3,2.2-5.3
		c0.5-2,0.7-4.1,0.7-6.2C-1568.8,3072.8-1569,3070.7-1569.5,3068.7z M-1551,3065c0.2-3.3,1-6.1,2.5-8.3c1.5-2.2,3.3-4,5.6-5.3
		c2.3-1.3,4.8-2.3,7.6-2.8c2.8-0.6,5.7-0.8,8.6-0.8c2.6,0,5.2,0.2,7.9,0.5c2.7,0.4,5.1,1.1,7.3,2.1c2.2,1.1,4,2.6,5.4,4.5
		c1.4,1.9,2.1,4.4,2.1,7.5v26.9c0,2.3,0.1,4.6,0.4,6.7c0.3,2.1,0.7,3.7,1.4,4.8h-14.4c-0.3-0.8-0.5-1.6-0.7-2.5
		c-0.2-0.8-0.3-1.7-0.3-2.5c-2.3,2.3-4.9,4-8,4.9c-3.1,0.9-6.2,1.4-9.4,1.4c-2.5,0-4.8-0.3-6.9-0.9c-2.1-0.6-4-1.5-5.6-2.8
		c-1.6-1.3-2.8-2.9-3.8-4.8c-0.9-1.9-1.3-4.2-1.3-6.9c0-2.9,0.5-5.4,1.5-7.2c1-1.9,2.4-3.4,4-4.6c1.6-1.1,3.5-2,5.6-2.5
		c2.1-0.6,4.2-1,6.4-1.3c2.1-0.3,4.2-0.6,6.3-0.8c2.1-0.2,3.9-0.5,5.5-0.9s2.9-1,3.8-1.8c0.9-0.8,1.4-1.9,1.3-3.3
		c0-1.5-0.2-2.8-0.8-3.7s-1.2-1.6-2-2.1c-0.8-0.5-1.8-0.8-2.9-1c-1.1-0.2-2.3-0.2-3.6-0.2c-2.8,0-5,0.6-6.6,1.8
		c-1.6,1.2-2.5,3.2-2.8,6H-1551z M-1518.2,3075.5c-0.6,0.5-1.4,1-2.2,1.2s-1.9,0.5-2.9,0.8c-1,0.2-2.1,0.4-3.2,0.5
		c-1.1,0.1-2.3,0.3-3.4,0.5c-1.1,0.2-2.1,0.5-3.1,0.8c-1,0.3-1.9,0.8-2.7,1.3c-0.8,0.6-1.4,1.3-1.9,2.2c-0.5,0.9-0.7,2-0.7,3.3
		c0,1.3,0.2,2.3,0.7,3.2c0.5,0.9,1.1,1.5,1.9,2c0.8,0.5,1.7,0.9,2.8,1c1.1,0.2,2.2,0.3,3.3,0.3c2.8,0,5-0.5,6.5-1.4
		c1.5-0.9,2.7-2,3.4-3.3c0.7-1.3,1.2-2.6,1.4-4c0.2-1.3,0.2-2.4,0.2-3.2V3075.5z M-1473.9,3058.4c-2.3,0-4.2,0.5-5.7,1.6
		c-1.5,1-2.8,2.4-3.8,4c-1,1.6-1.6,3.4-2,5.4c-0.4,2-0.6,3.9-0.6,5.9c0,1.9,0.2,3.8,0.6,5.7c0.4,1.9,1,3.7,2,5.2
		c0.9,1.6,2.1,2.9,3.7,3.9c1.5,1,3.4,1.5,5.6,1.5c3.4,0,6-1,7.8-2.9c1.8-1.9,3-4.4,3.4-7.6h13.7c-0.9,6.9-3.6,12.1-8,15.7
		c-4.4,3.6-10,5.4-16.9,5.4c-3.9,0-7.4-0.6-10.6-2c-3.2-1.3-6-3.1-8.2-5.4c-2.3-2.3-4-5.1-5.3-8.4c-1.3-3.2-1.9-6.8-1.9-10.6
		c0-4,0.6-7.7,1.8-11.2c1.2-3.4,2.9-6.4,5.2-8.9c2.3-2.5,5-4.4,8.3-5.8c3.3-1.4,7-2.1,11.2-2.1c3.1,0,6,0.4,8.8,1.2
		c2.8,0.8,5.4,2,7.6,3.7c2.2,1.6,4.1,3.7,5.4,6.1c1.4,2.4,2.2,5.3,2.4,8.7h-13.9C-1464.3,3061.4-1467.8,3058.4-1473.9,3058.4z
		 M-1432,3033.4v34.3l17.9-18.6h16.8l-19.5,19l21.7,32.7h-17.2l-14.2-23.1l-5.5,5.3v17.8h-14.2v-67.4H-1432z M-1384.1,3088
		c0.6,1.1,1.5,2,2.5,2.7c1,0.7,2.2,1.2,3.5,1.6c1.3,0.3,2.7,0.5,4,0.5c1,0,2-0.1,3.2-0.4c1.1-0.2,2.1-0.6,3-1.1
		c0.9-0.5,1.6-1.2,2.2-2c0.6-0.8,0.9-1.9,0.9-3.2c0-2.1-1.4-3.7-4.2-4.8c-2.8-1.1-6.8-2.1-11.8-3.2c-2.1-0.5-4.1-1-6-1.6
		c-2-0.6-3.7-1.5-5.2-2.5c-1.5-1-2.8-2.3-3.7-3.9c-0.9-1.6-1.4-3.5-1.4-5.8c0-3.3,0.7-6.1,2-8.2c1.3-2.1,3-3.8,5.2-5
		c2.1-1.2,4.5-2.1,7.2-2.6c2.7-0.5,5.4-0.8,8.2-0.8c2.8,0,5.5,0.3,8.2,0.8c2.6,0.5,5,1.4,7,2.7c2.1,1.3,3.8,2.9,5.2,5
		c1.4,2.1,2.2,4.8,2.5,8h-13.5c-0.2-2.7-1.2-4.6-3.1-5.6c-1.9-1-4.1-1.4-6.6-1.4c-0.8,0-1.7,0-2.6,0.1c-0.9,0.1-1.8,0.3-2.5,0.7
		c-0.8,0.3-1.4,0.8-2,1.5c-0.5,0.6-0.8,1.5-0.8,2.5c0,1.3,0.5,2.3,1.4,3.1c0.9,0.8,2.1,1.5,3.6,2s3.2,1,5.2,1.3
		c1.9,0.4,3.9,0.8,5.9,1.3c2.1,0.5,4.1,1,6,1.7c2,0.7,3.7,1.6,5.2,2.7c1.5,1.1,2.8,2.5,3.7,4.1c0.9,1.6,1.4,3.7,1.4,6.1
		c0,3.4-0.7,6.2-2,8.5c-1.4,2.3-3.2,4.1-5.3,5.5c-2.2,1.4-4.7,2.4-7.6,3c-2.8,0.6-5.7,0.8-8.6,0.8c-3,0-5.9-0.3-8.8-0.9
		c-2.9-0.6-5.4-1.6-7.7-3c-2.2-1.4-4.1-3.2-5.5-5.6c-1.4-2.3-2.2-5.2-2.3-8.6h13.5C-1385.1,3085.6-1384.7,3086.9-1384.1,3088z
		 M-1316.5,3049.1v9.5h-10.4v25.6c0,2.4,0.4,4,1.2,4.8c0.8,0.8,2.4,1.2,4.8,1.2c0.8,0,1.6,0,2.3-0.1c0.7-0.1,1.4-0.2,2.1-0.3v11
		c-1.2,0.2-2.5,0.3-4,0.4c-1.5,0.1-2.9,0.1-4.3,0.1c-2.2,0-4.3-0.2-6.2-0.5c-2-0.3-3.7-0.9-5.2-1.8c-1.5-0.9-2.7-2.1-3.5-3.7
		c-0.9-1.6-1.3-3.7-1.3-6.3v-30.5h-8.6v-9.5h8.6v-15.5h14.2v15.5H-1316.5z M-1311.9,3065c0.2-3.3,1-6.1,2.5-8.3
		c1.5-2.2,3.3-4,5.6-5.3c2.3-1.3,4.8-2.3,7.6-2.8c2.8-0.6,5.7-0.8,8.5-0.8c2.6,0,5.2,0.2,7.9,0.5c2.7,0.4,5.1,1.1,7.3,2.1
		c2.2,1.1,4,2.6,5.4,4.5c1.4,1.9,2.1,4.4,2.1,7.5v26.9c0,2.3,0.1,4.6,0.4,6.7c0.3,2.1,0.7,3.7,1.4,4.8h-14.4
		c-0.3-0.8-0.5-1.6-0.7-2.5c-0.2-0.8-0.3-1.7-0.3-2.5c-2.3,2.3-4.9,4-8,4.9c-3.1,0.9-6.2,1.4-9.4,1.4c-2.5,0-4.8-0.3-6.9-0.9
		c-2.1-0.6-4-1.5-5.6-2.8c-1.6-1.3-2.8-2.9-3.8-4.8c-0.9-1.9-1.3-4.2-1.3-6.9c0-2.9,0.5-5.4,1.5-7.2c1-1.9,2.4-3.4,4-4.6
		c1.6-1.1,3.5-2,5.6-2.5c2.1-0.6,4.2-1,6.4-1.3c2.1-0.3,4.2-0.6,6.3-0.8c2.1-0.2,3.9-0.5,5.5-0.9c1.6-0.4,2.9-1,3.8-1.8
		c0.9-0.8,1.4-1.9,1.3-3.3c0-1.5-0.2-2.8-0.8-3.7s-1.2-1.6-2-2.1c-0.8-0.5-1.8-0.8-2.9-1c-1.1-0.2-2.3-0.2-3.5-0.2
		c-2.8,0-5,0.6-6.6,1.8c-1.6,1.2-2.5,3.2-2.8,6H-1311.9z M-1279.1,3075.5c-0.6,0.5-1.3,1-2.2,1.2c-0.9,0.3-1.9,0.5-2.9,0.8
		c-1,0.2-2.1,0.4-3.2,0.5c-1.1,0.1-2.3,0.3-3.4,0.5c-1.1,0.2-2.1,0.5-3.1,0.8c-1,0.3-1.9,0.8-2.7,1.3c-0.8,0.6-1.4,1.3-1.9,2.2
		c-0.5,0.9-0.7,2-0.7,3.3c0,1.3,0.2,2.3,0.7,3.2c0.5,0.9,1.1,1.5,1.9,2c0.8,0.5,1.7,0.9,2.8,1c1.1,0.2,2.2,0.3,3.3,0.3
		c2.8,0,5-0.5,6.5-1.4c1.5-0.9,2.7-2,3.4-3.3c0.7-1.3,1.2-2.6,1.3-4c0.2-1.3,0.2-2.4,0.2-3.2V3075.5z M-1210.7,3104.6
		c-0.6,2.7-1.8,5.2-3.7,7.5c-1.9,2.3-4.6,4.2-8.1,5.8c-3.5,1.6-8.3,2.4-14.2,2.4c-2.5,0-5.1-0.3-7.8-1c-2.6-0.6-5-1.6-7.2-3
		c-2.2-1.3-4-3-5.4-5.1c-1.4-2.1-2.2-4.6-2.5-7.5h14.1c0.7,2.7,2,4.5,3.9,5.5c1.9,1,4.2,1.5,6.7,1.5c4,0,6.9-1.2,8.8-3.6
		c1.8-2.4,2.7-5.4,2.6-9.1v-6.8h-0.2c-1.5,2.7-3.7,4.8-6.6,6c-2.8,1.3-5.8,2-8.9,2c-3.9,0-7.2-0.7-10-2c-2.8-1.4-5.1-3.2-6.9-5.6
		c-1.8-2.4-3.1-5.1-4-8.3c-0.8-3.2-1.2-6.5-1.2-10c0-3.3,0.5-6.5,1.5-9.7c1-3.1,2.4-5.8,4.2-8.2c1.9-2.4,4.2-4.2,7-5.7
		c2.8-1.4,6-2.1,9.5-2.1c3.4,0,6.4,0.6,9,1.9c2.6,1.3,4.7,3.4,6.5,6.4h0.2v-6.9h13.5v48.4C-1209.8,3099.6-1210.1,3102-1210.7,3104.6
		z M-1230.1,3087.4c1.5-0.8,2.8-1.9,3.8-3.2c1-1.3,1.8-2.9,2.2-4.6c0.5-1.7,0.8-3.5,0.8-5.3c0-2.1-0.2-4.2-0.6-6
		c-0.4-1.9-1.1-3.6-2-5c-0.9-1.5-2.2-2.6-3.7-3.5c-1.5-0.9-3.5-1.3-5.8-1.3c-2,0-3.7,0.4-5.2,1.2s-2.6,1.9-3.6,3.2
		c-1,1.4-1.7,2.9-2.1,4.7c-0.4,1.8-0.7,3.6-0.7,5.5c0,1.9,0.2,3.7,0.5,5.5c0.4,1.8,1,3.5,1.9,5c0.9,1.5,2.1,2.7,3.5,3.6
		c1.5,0.9,3.3,1.4,5.5,1.4C-1233.4,3088.6-1231.7,3088.2-1230.1,3087.4z M-1188.1,3088.4c2.1,2.1,5.2,3.1,9.2,3.1
		c2.9,0,5.3-0.7,7.4-2.2c2.1-1.4,3.3-3,3.8-4.5h12.5c-2,6.2-5.1,10.6-9.2,13.3c-4.1,2.7-9.1,4-15,4c-4.1,0-7.7-0.6-11-2
		c-3.3-1.3-6-3.1-8.3-5.5c-2.3-2.4-4-5.3-5.2-8.6c-1.2-3.3-1.8-7-1.8-11c0-3.9,0.6-7.5,1.9-10.8c1.3-3.3,3.1-6.2,5.4-8.7
		c2.3-2.4,5.1-4.3,8.3-5.8c3.2-1.4,6.8-2.1,10.8-2.1c4.4,0,8.2,0.8,11.5,2.5c3.3,1.7,6,4,8,6.8c2.1,2.9,3.6,6.1,4.6,9.8
		c0.9,3.7,1.3,7.5,1,11.5h-37.3C-1191.4,3083-1190.3,3086.4-1188.1,3088.4z M-1172.1,3061.2c-1.7-1.9-4.3-2.8-7.8-2.8
		c-2.3,0-4.2,0.4-5.7,1.2c-1.5,0.8-2.7,1.7-3.6,2.8c-0.9,1.1-1.5,2.3-1.9,3.6c-0.4,1.3-0.6,2.4-0.7,3.4h23.1
		C-1169.2,3065.8-1170.4,3063.1-1172.1,3061.2z"/>
	<path class="st6" d="M-1618.9,3067.1c0-18.6-15.1-33.7-33.7-33.7h-26c-18.6,0-33.7,15.1-33.7,33.7s15.1,33.7,33.7,33.7h13h23.4
		l23.3,23.3c0,0,0-41.1,0-56.8C-1618.9,3067.3-1618.9,3067.2-1618.9,3067.1z M-1631.1,3088.6v6l-6-6h0l0,0h-41.5
		c-11.9,0-21.5-9.6-21.5-21.5c0-11.9,9.6-21.5,21.5-21.5h26c11.9,0,21.5,9.6,21.5,21.5v0l0,0v8.8V3088.6z"/>
</g>
<g id="HPTX_MEDIAKIT">
	<path class="st4" d="M-612.6,2355.7v7h0.2c1.9-2.7,4.1-4.7,6.8-6.2c2.6-1.5,5.6-2.2,9-2.2c3.3,0,6.2,0.6,9,1.9
		c2.7,1.3,4.8,3.5,6.1,6.7c1.5-2.3,3.6-4.3,6.2-6c2.6-1.7,5.8-2.6,9.4-2.6c2.7,0,5.3,0.3,7.6,1c2.3,0.7,4.3,1.7,6,3.2
		c1.7,1.5,3,3.4,3.9,5.8c0.9,2.4,1.4,5.2,1.4,8.6v34.6h-14.2v-29.3c0-1.7-0.1-3.4-0.2-4.9c-0.1-1.5-0.5-2.9-1.1-4
		c-0.6-1.1-1.5-2-2.6-2.7c-1.2-0.7-2.8-1-4.8-1s-3.6,0.4-4.9,1.2c-1.2,0.8-2.2,1.8-2.9,3c-0.7,1.2-1.2,2.6-1.4,4.2
		c-0.2,1.6-0.3,3.1-0.3,4.8v28.8h-14.2v-29c0-1.5,0-3-0.1-4.5s-0.3-2.9-0.8-4.2c-0.5-1.3-1.3-2.3-2.5-3c-1.2-0.8-2.9-1.2-5.2-1.2
		c-0.7,0-1.5,0.2-2.6,0.5c-1.1,0.3-2.2,0.9-3.2,1.7c-1,0.8-1.9,2-2.7,3.6c-0.7,1.6-1.1,3.6-1.1,6.2v30H-626v-51.7H-612.6z
		 M-525.7,2395c2.1,2.1,5.2,3.1,9.2,3.1c2.9,0,5.3-0.7,7.4-2.2c2.1-1.4,3.3-3,3.8-4.5h12.5c-2,6.2-5.1,10.6-9.2,13.3
		c-4.1,2.7-9.1,4-15,4c-4.1,0-7.7-0.6-11-2c-3.3-1.3-6-3.1-8.3-5.5c-2.3-2.4-4-5.3-5.2-8.6c-1.2-3.3-1.8-7-1.8-11
		c0-3.9,0.6-7.5,1.9-10.8c1.3-3.3,3.1-6.2,5.4-8.7c2.3-2.4,5.1-4.3,8.3-5.8c3.2-1.4,6.8-2.1,10.8-2.1c4.4,0,8.2,0.8,11.5,2.5
		c3.3,1.7,6,4,8,6.8c2.1,2.9,3.6,6.1,4.6,9.8c0.9,3.7,1.3,7.5,1,11.5h-37.3C-529,2389.6-527.8,2393-525.7,2395z M-509.6,2367.8
		c-1.7-1.9-4.3-2.8-7.7-2.8c-2.3,0-4.2,0.4-5.7,1.2c-1.5,0.8-2.7,1.7-3.6,2.8c-0.9,1.1-1.5,2.3-1.9,3.6c-0.4,1.3-0.6,2.4-0.7,3.4
		h23.1C-506.7,2372.4-507.9,2369.7-509.6,2367.8z M-449.3,2400.8c-1.7,2.8-3.8,4.8-6.5,6c-2.7,1.2-5.8,1.8-9.1,1.8
		c-3.9,0-7.3-0.8-10.2-2.2c-2.9-1.5-5.4-3.5-7.2-6.1c-1.9-2.6-3.3-5.5-4.3-8.9c-1-3.3-1.5-6.8-1.5-10.4c0-3.5,0.5-6.8,1.5-10
		c1-3.2,2.4-6.1,4.3-8.6c1.9-2.5,4.3-4.4,7.1-5.9c2.9-1.5,6.2-2.2,10-2.2c3.1,0,6,0.6,8.8,1.9c2.8,1.3,5,3.2,6.6,5.8h0.2v-26h14.2
		v71.4h-13.5v-6.6H-449.3z M-449.9,2375.3c-0.4-2-1.1-3.7-2-5.2c-1-1.5-2.2-2.7-3.8-3.7c-1.5-0.9-3.5-1.4-5.8-1.4
		c-2.3,0-4.3,0.5-5.9,1.4c-1.6,0.9-2.9,2.2-3.8,3.7c-1,1.5-1.7,3.3-2.1,5.2c-0.4,2-0.6,4-0.6,6.1c0,2,0.2,4,0.7,6
		c0.5,2,1.2,3.8,2.2,5.4c1,1.6,2.3,2.8,3.9,3.8c1.6,1,3.5,1.5,5.7,1.5c2.3,0,4.3-0.5,5.8-1.4c1.6-0.9,2.8-2.2,3.8-3.8
		c0.9-1.6,1.6-3.3,2-5.3c0.4-2,0.6-4.1,0.6-6.2C-449.3,2379.3-449.5,2377.2-449.9,2375.3z M-428.5,2347.7V2336h14.2v11.7H-428.5z
		 M-414.3,2355.7v51.7h-14.2v-51.7H-414.3z M-409.1,2371.6c0.2-3.3,1-6.1,2.5-8.3c1.5-2.2,3.3-4,5.6-5.3c2.3-1.3,4.8-2.3,7.6-2.8
		c2.8-0.6,5.7-0.8,8.5-0.8c2.6,0,5.2,0.2,7.9,0.5c2.7,0.4,5.1,1.1,7.3,2.1c2.2,1.1,4,2.6,5.4,4.5c1.4,1.9,2.1,4.4,2.1,7.5v26.9
		c0,2.3,0.1,4.6,0.4,6.7c0.3,2.1,0.7,3.7,1.4,4.8h-14.4c-0.3-0.8-0.5-1.6-0.7-2.5c-0.2-0.8-0.3-1.7-0.3-2.5c-2.3,2.3-4.9,4-8,4.9
		c-3.1,0.9-6.2,1.4-9.4,1.4c-2.5,0-4.8-0.3-6.9-0.9c-2.1-0.6-4-1.5-5.6-2.8c-1.6-1.3-2.8-2.9-3.8-4.8c-0.9-1.9-1.3-4.2-1.3-6.9
		c0-2.9,0.5-5.4,1.5-7.2c1-1.9,2.4-3.4,4-4.6c1.6-1.1,3.5-2,5.6-2.5c2.1-0.6,4.2-1,6.4-1.3c2.1-0.3,4.2-0.6,6.3-0.8
		c2.1-0.2,3.9-0.5,5.5-0.9c1.6-0.4,2.9-1,3.8-1.8c0.9-0.8,1.4-1.9,1.3-3.3c0-1.5-0.2-2.8-0.8-3.7s-1.2-1.6-2-2.1
		c-0.8-0.5-1.8-0.8-2.9-1c-1.1-0.2-2.3-0.2-3.5-0.2c-2.8,0-5,0.6-6.6,1.8c-1.6,1.2-2.5,3.2-2.8,6H-409.1z M-376.3,2382.1
		c-0.6,0.5-1.3,1-2.2,1.2c-0.9,0.3-1.9,0.5-2.9,0.8c-1,0.2-2.1,0.4-3.2,0.5c-1.1,0.1-2.3,0.3-3.4,0.5c-1.1,0.2-2.1,0.5-3.1,0.8
		c-1,0.3-1.9,0.8-2.7,1.3c-0.8,0.6-1.4,1.3-1.9,2.2c-0.5,0.9-0.7,2-0.7,3.3c0,1.3,0.2,2.3,0.7,3.2c0.5,0.9,1.1,1.5,1.9,2
		c0.8,0.5,1.7,0.9,2.8,1c1.1,0.2,2.2,0.3,3.3,0.3c2.8,0,5-0.5,6.5-1.4c1.5-0.9,2.7-2,3.4-3.3c0.7-1.3,1.2-2.6,1.3-4
		c0.2-1.3,0.2-2.4,0.2-3.2V2382.1z M-342.5,2336v38.3l17.9-18.6h16.8l-19.5,19l21.7,32.7h-17.2l-14.2-23.1l-5.5,5.3v17.8h-14.2V2336
		H-342.5z M-302.2,2347.7V2336h14.2v11.7H-302.2z M-288,2355.7v51.7h-14.2v-51.7H-288z M-251.2,2355.7v9.5h-10.4v25.6
		c0,2.4,0.4,4,1.2,4.8c0.8,0.8,2.4,1.2,4.8,1.2c0.8,0,1.6,0,2.3-0.1c0.7-0.1,1.4-0.2,2.1-0.3v11c-1.2,0.2-2.5,0.3-4,0.4
		c-1.5,0.1-2.9,0.1-4.3,0.1c-2.2,0-4.3-0.2-6.2-0.5c-2-0.3-3.7-0.9-5.2-1.8c-1.5-0.9-2.7-2.1-3.5-3.7c-0.9-1.6-1.3-3.7-1.3-6.3
		v-30.5h-8.6v-9.5h8.6v-15.5h14.2v15.5H-251.2z"/>
	<path class="st6" d="M-638.2,2373.9c0-18.6-15.1-33.7-33.7-33.7h-26c-18.6,0-33.7,15.1-33.7,33.7s15.1,33.7,33.7,33.7h13h23.4
		l23.3,23.3c0,0,0-41.1,0-56.8C-638.2,2374.1-638.2,2374-638.2,2373.9z M-650.4,2395.5v6l-6-6h0l0,0h-41.5
		c-11.9,0-21.5-9.6-21.5-21.5c0-11.9,9.6-21.5,21.5-21.5h26c11.9,0,21.5,9.6,21.5,21.5v0l0,0v8.8V2395.5z"/>
</g>
<g id="HPTX_LIVE">
	<path class="st4" d="M-1433.1,2338.1v67.2h-13.4v-67.2H-1433.1z M-1426,2349.1v-11h13.4v11H-1426z M-1412.6,2356.7v48.7h-13.4
		v-48.7H-1412.6z M-1392.4,2405.3l-16.7-48.7h14l10.3,33.2h0.2l10.3-33.2h13.3l-16.5,48.7H-1392.4z M-1346.4,2393.7
		c2,1.9,4.9,2.9,8.7,2.9c2.7,0,5-0.7,7-2c1.9-1.3,3.1-2.8,3.6-4.3h11.8c-1.9,5.8-4.8,10-8.7,12.5c-3.9,2.5-8.6,3.8-14.1,3.8
		c-3.8,0-7.3-0.6-10.4-1.8c-3.1-1.2-5.7-3-7.8-5.2s-3.8-5-4.9-8.1c-1.2-3.1-1.7-6.6-1.7-10.4c0-3.6,0.6-7,1.8-10.2
		c1.2-3.1,2.9-5.9,5.1-8.1c2.2-2.3,4.8-4.1,7.9-5.4c3-1.3,6.4-2,10.1-2c4.1,0,7.7,0.8,10.8,2.4c3.1,1.6,5.6,3.8,7.6,6.4
		c2,2.7,3.4,5.8,4.3,9.2s1.2,7.1,0.9,10.8h-35.1C-1349.5,2388.6-1348.4,2391.7-1346.4,2393.7z M-1331.3,2368.1
		c-1.6-1.8-4-2.6-7.3-2.6c-2.1,0-3.9,0.4-5.3,1.1c-1.4,0.7-2.5,1.6-3.4,2.7c-0.8,1.1-1.4,2.2-1.8,3.4c-0.3,1.2-0.5,2.3-0.6,3.2h21.7
		C-1328.5,2372.4-1329.7,2369.8-1331.3,2368.1z"/>
	<path class="st6" d="M-1458.7,2371.8c0-18.6-15.1-33.7-33.7-33.7h-26c-18.6,0-33.7,15.1-33.7,33.7s15.1,33.7,33.7,33.7h13h23.4
		l23.3,23.3c0,0,0-41.1,0-56.8C-1458.7,2372-1458.7,2371.9-1458.7,2371.8z M-1470.9,2393.4v6l-6-6h0l0,0h-41.5
		c-11.9,0-21.5-9.6-21.5-21.5c0-11.9,9.6-21.5,21.5-21.5h26c11.9,0,21.5,9.6,21.5,21.5v0l0,0v8.8V2393.4z"/>
</g>
<g id="HPTX_UP">
	<path id="_x3C_Trazado_compuesto_x3E__1_" class="st4" d="M-386.3,1669.6c-0.9-3.4-2.4-6.4-4.4-9c-2-2.6-4.4-4.6-7.4-6.2
		c-3-1.6-6.5-2.3-10.6-2.3c-3.2,0-6.2,0.6-8.9,1.9c-2.7,1.3-4.9,3.3-6.7,6.2l-0.2,0.3l0-7h-13.7v70.7h14.4l0-25.1l0.2,0.3
		c1.8,2.6,4,4.5,6.7,5.8c2.7,1.3,5.7,2,9,2c3.8,0,7.2-0.7,10.1-2.2c2.9-1.5,5.3-3.5,7.2-6c1.9-2.5,3.4-5.4,4.3-8.6
		c0.9-3.2,1.4-6.6,1.4-10.1C-384.9,1676.6-385.3,1673-386.3,1669.6z M-399.4,1686.1c-0.4,2-1.1,3.8-2.1,5.3c-1,1.5-2.3,2.8-3.9,3.7
		c-1.6,0.9-3.6,1.4-5.9,1.4c-2.3,0-4.3-0.5-5.9-1.4c-1.6-0.9-2.9-2.2-3.9-3.7c-1-1.5-1.7-3.3-2.1-5.3c-0.4-2-0.7-4.1-0.7-6.2
		c0-2.2,0.2-4.3,0.6-6.3c0.4-2,1.1-3.8,2.1-5.4c1-1.6,2.3-2.8,3.8-3.8c1.6-1,3.6-1.5,5.9-1.5c2.3,0,4.2,0.5,5.8,1.5
		c1.6,1,2.9,2.3,3.9,3.9c1,1.6,1.7,3.4,2.2,5.4c0.4,2,0.7,4.1,0.7,6.2C-398.8,1682-399,1684-399.4,1686.1z M-456.9,1705.9v-7.8
		l-0.3,0.6c-1.8,3-4.2,5.2-7.1,6.6c-2.9,1.3-5.9,2-8.9,2c-3.9,0-7-0.5-9.5-1.5c-2.5-1-4.4-2.5-5.8-4.3c-1.4-1.9-2.4-4.1-3-6.8
		c-0.6-2.7-0.9-5.6-0.9-8.9v-32.2h14.4v29.6c0,4.3,0.7,7.5,2,9.7c1.3,2.1,3.8,3.2,7.2,3.2c3.9,0,6.8-1.2,8.5-3.5
		c1.8-2.3,2.6-6.2,2.6-11.5v-27.5h14.4v52.4H-456.9z"/>
	<path class="st6" d="M-504.5,1676.6c0-18.6-15.1-33.7-33.7-33.7h-26c-18.6,0-33.7,15.1-33.7,33.7c0,18.6,15.1,33.7,33.7,33.7h13
		h23.4l23.3,23.3c0,0,0-41.1,0-56.8C-504.5,1676.7-504.5,1676.6-504.5,1676.6z M-516.7,1698.1v6l-6-6h0l0,0h-41.5
		c-11.9,0-21.5-9.6-21.5-21.5c0-11.9,9.6-21.5,21.5-21.5h26c11.9,0,21.5,9.6,21.5,21.5l0,0h0v8.8V1698.1z"/>
</g>
<g id="HPTX_VIP">
	<path class="st4" d="M-1428.9,1711.1l-17.9-52.2h15l11,35.7h0.2l11-35.7h14.2l-17.7,52.2H-1428.9z M-1391.3,1650.8V1639h14.3v11.8
		H-1391.3z M-1377,1658.9v52.2h-14.3v-52.2H-1377z M-1357.3,1658.9v6.7h0.2c1.8-2.8,4-4.9,6.7-6.2c2.7-1.3,5.7-1.9,8.9-1.9
		c4.1,0,7.6,0.8,10.6,2.3c3,1.5,5.4,3.6,7.4,6.2c2,2.6,3.4,5.5,4.3,8.9c0.9,3.4,1.4,7,1.4,10.7c0,3.5-0.5,6.9-1.4,10.1
		c-0.9,3.2-2.4,6.1-4.3,8.6c-1.9,2.5-4.3,4.5-7.2,6c-2.9,1.5-6.2,2.2-10,2.2c-3.2,0-6.2-0.7-8.9-2c-2.7-1.3-5-3.2-6.7-5.8h-0.2v24.7
		h-14.3v-70.5H-1357.3z M-1338.7,1700.3c1.6-0.9,2.9-2.2,3.8-3.7c1-1.5,1.7-3.3,2.1-5.3c0.4-2,0.6-4.1,0.6-6.2
		c0-2.1-0.2-4.1-0.7-6.2c-0.4-2-1.2-3.8-2.2-5.4c-1-1.6-2.3-2.9-3.9-3.8c-1.6-1-3.5-1.5-5.8-1.5c-2.4,0-4.3,0.5-5.9,1.5
		c-1.6,1-2.9,2.2-3.8,3.8c-1,1.5-1.7,3.3-2.1,5.4c-0.4,2-0.6,4.1-0.6,6.3c0,2.1,0.2,4.1,0.7,6.2c0.4,2,1.1,3.8,2.1,5.3
		c1,1.5,2.3,2.7,3.9,3.7c1.6,0.9,3.6,1.4,5.9,1.4C-1342.2,1701.7-1340.3,1701.2-1338.7,1700.3z"/>
	<path class="st6" d="M-1455.3,1680.4c0-18.6-15.1-33.7-33.7-33.7h-26c-18.6,0-33.7,15.1-33.7,33.7c0,18.6,15.1,33.7,33.7,33.7h13
		h23.4l23.3,23.3c0,0,0-41.1,0-56.8C-1455.3,1680.5-1455.3,1680.5-1455.3,1680.4z M-1467.5,1701.9v6l-6-6h0l0,0h-41.5
		c-11.9,0-21.5-9.6-21.5-21.5c0-11.9,9.6-21.5,21.5-21.5h26c11.9,0,21.5,9.6,21.5,21.5l0,0h0v8.8V1701.9z"/>
</g>
<g id="HPTX_NEGATIVO">
	<rect id="_x3C_Trazado_x3E_" x="-912.3" y="695.3" class="st7" width="841.9" height="595.3"/>
	<path id="HPTXT_NEGATIVO_1_" class="st1" d="M-205.5,947.6v67.4h-13.4v-67.4H-205.5z M-286.9,1015v-7.3l-0.3,0.5
		c-1.7,2.8-3.9,4.9-6.6,6.1c-2.7,1.3-5.5,1.9-8.3,1.9c-3.6,0-6.5-0.5-8.8-1.4c-2.3-0.9-4.1-2.3-5.4-4c-1.3-1.7-2.3-3.8-2.8-6.3
		c-0.5-2.5-0.8-5.2-0.8-8.3v-30h13.4v27.6c0,4,0.6,7,1.9,9c1.3,2,3.5,3,6.7,3c3.6,0,6.3-1.1,7.9-3.3c1.6-2.2,2.5-5.7,2.5-10.7v-25.6
		h13.4v48.8H-286.9z M-324.6,975.1v-9h-9.8v-12.5h-13.4v12.5h-17.7l-8.5,12.7l-8.6-12.7H-398l16.1,23.1l-17.6,25.7h15l10.2-15.4
		l10.2,15.4h15.3l-18-26l9.8-13.9h9.2v28.8c0,2.5,0.4,4.4,1.2,5.9c0.8,1.5,1.9,2.7,3.3,3.5c1.4,0.8,3.1,1.4,4.9,1.7
		c1.9,0.3,3.8,0.4,5.9,0.4c1.3,0,2.7,0,4.1-0.1c1.4-0.1,2.6-0.2,3.8-0.4v-10.4c-0.6,0.1-1.3,0.2-2,0.3c-0.7,0.1-1.4,0.1-2.2,0.1
		c-2.3,0-3.8-0.4-4.5-1.1c-0.8-0.8-1.1-2.3-1.1-4.5v-24.2H-324.6z M-395.8,983c-0.9-3.5-2.3-6.5-4.3-9.3c-2-2.7-4.5-4.9-7.6-6.5
		c-3.1-1.6-6.7-2.4-10.9-2.4c-3.7,0-7.1,0.7-10.2,2c-3.1,1.3-5.7,3.1-7.9,5.4c-2.2,2.3-3.9,5-5.1,8.2c-1.2,3.1-1.8,6.5-1.8,10.2
		c0,3.8,0.6,7.2,1.7,10.4c1.2,3.1,2.8,5.9,5,8.1c2.1,2.3,4.8,4,7.8,5.2c3.1,1.2,6.6,1.8,10.4,1.8c5.5,0,10.3-1.3,14.2-3.8
		c3.9-2.5,6.8-6.7,8.7-12.6h-11.8c-0.4,1.5-1.6,2.9-3.6,4.3c-2,1.4-4.3,2-7,2c-3.8,0-6.7-1-8.7-2.9c-2-2-3.1-5.1-3.3-9.4h35.2
		C-394.6,990.1-395,986.4-395.8,983z M-430.1,985.3c0.1-0.9,0.3-2,0.6-3.2c0.3-1.2,0.9-2.3,1.8-3.4c0.9-1.1,2-2,3.4-2.7
		c1.4-0.7,3.2-1.1,5.3-1.1c3.3,0,5.7,0.9,7.3,2.6c1.6,1.8,2.7,4.3,3.4,7.7H-430.1z M-503,983c-0.9-3.5-2.3-6.5-4.3-9.3
		c-2-2.7-4.5-4.9-7.6-6.5c-3.1-1.6-6.7-2.4-10.9-2.4c-3.7,0-7.1,0.7-10.2,2c-3.1,1.3-5.7,3.1-7.9,5.4c-2.2,2.3-3.9,5-5.1,8.2
		c-1.2,3.1-1.8,6.5-1.8,10.2c0,3.8,0.6,7.2,1.7,10.4c1.2,3.1,2.8,5.9,5,8.1c2.1,2.3,4.8,4,7.8,5.2c3.1,1.2,6.5,1.8,10.4,1.8
		c5.5,0,10.3-1.3,14.2-3.8c3.9-2.5,6.8-6.7,8.7-12.6h-11.8c-0.4,1.5-1.6,2.9-3.6,4.3c-2,1.4-4.3,2-7,2c-3.8,0-6.7-1-8.7-2.9
		c-2-2-3.1-5.1-3.3-9.4h35.2C-501.8,990.1-502.1,986.4-503,983z M-537.3,985.3c0.1-0.9,0.3-2,0.6-3.2c0.3-1.2,0.9-2.3,1.8-3.4
		c0.8-1.1,2-2,3.4-2.7c1.4-0.7,3.2-1.1,5.3-1.1c3.3,0,5.7,0.9,7.3,2.6c1.6,1.8,2.7,4.3,3.4,7.7H-537.3z M-554.8,981.1
		c-0.9-3.2-2.2-6-4.1-8.4c-1.8-2.4-4.1-4.3-6.9-5.8c-2.8-1.4-6.1-2.2-9.9-2.2c-3,0-5.8,0.6-8.3,1.8c-2.5,1.2-4.6,3.1-6.2,5.8
		l-0.2,0.3l0-6.5h-12.8v72.1h13.4l0-29.6l0.2,0.3c1.6,2.4,3.7,4.2,6.3,5.4c2.5,1.2,5.3,1.8,8.4,1.8c3.6,0,6.7-0.7,9.4-2.1
		c2.7-1.4,4.9-3.2,6.7-5.6c1.8-2.3,3.1-5,4-8c0.9-3,1.3-6.2,1.3-9.4C-553.5,987.6-553.9,984.3-554.8,981.1z M-567,996.5
		c-0.4,1.9-1,3.5-1.9,5c-0.9,1.4-2.1,2.6-3.6,3.4c-1.5,0.9-3.3,1.3-5.5,1.3c-2.1,0-4-0.4-5.5-1.3c-1.5-0.9-2.7-2-3.6-3.4
		c-0.9-1.4-1.6-3.1-2-5c-0.4-1.9-0.6-3.8-0.6-5.8c0-2,0.2-4,0.6-5.9c0.4-1.9,1-3.6,1.9-5c0.9-1.4,2.1-2.6,3.6-3.5
		c1.5-0.9,3.3-1.4,5.5-1.4c2.1,0,3.9,0.5,5.4,1.4c1.5,0.9,2.7,2.1,3.6,3.6c0.9,1.5,1.6,3.2,2,5.1c0.4,1.9,0.6,3.8,0.6,5.8
		C-566.4,992.7-566.6,994.6-567,996.5z M-607.8,966.2v48.8h-13.4v-48.8H-607.8z M-658.3,947.6l0,25.8l0.3-0.4
		c1.7-2.8,3.9-4.9,6.5-6.2c2.6-1.3,5.2-1.9,7.7-1.9c3.6,0,6.5,0.5,8.8,1.5c2.3,1,4.1,2.3,5.4,4.1c1.3,1.7,2.2,3.8,2.8,6.3
		c0.5,2.5,0.8,5.2,0.8,8.3v30h-13.4v-27.6c0-4-0.6-7-1.9-9c-1.3-2-3.5-3-6.7-3c-3.7,0-6.3,1.1-7.9,3.3c-1.6,2.2-2.5,5.7-2.5,10.7
		v25.6h-13.4v-67.4H-658.3z M-224.5,978.7c0-3-0.7-5.3-2-7.1c-1.3-1.8-3-3.2-5.1-4.2c-2.1-1-4.4-1.7-6.9-2c-2.5-0.3-5-0.5-7.5-0.5
		c-2.7,0-5.4,0.3-8.1,0.8c-2.7,0.5-5.1,1.4-7.2,2.7c-2.1,1.3-3.9,2.9-5.3,5c-1.4,2.1-2.2,4.7-2.4,7.8h13.4c0.3-2.6,1.1-4.5,2.6-5.7
		c1.5-1.1,3.6-1.7,6.2-1.7c1.2,0,2.3,0.1,3.4,0.2c1,0.2,1.9,0.5,2.7,0.9c0.8,0.5,1.4,1.1,1.9,2c0.5,0.8,0.7,2,0.7,3.4
		c0.1,1.4-0.3,2.4-1.2,3.2c-0.9,0.7-2.1,1.3-3.6,1.7c-1.5,0.4-3.2,0.7-5.2,0.8c-2,0.2-3.9,0.4-6,0.8c-2,0.3-4,0.7-6,1.3
		c-2,0.5-3.7,1.3-5.3,2.4c-1.5,1.1-2.8,2.5-3.8,4.3c-1,1.8-1.5,4.1-1.5,6.8c0,2.5,0.4,4.7,1.3,6.5c0.8,1.8,2,3.3,3.5,4.5
		c1.5,1.2,3.3,2.1,5.3,2.6c2,0.6,4.2,0.9,6.5,0.9c3,0,6-0.4,8.9-1.3c2.9-0.9,5.4-2.4,7.6-4.6v4.7h12.8V978.7z M-237.9,996.1
		c0,0.8-0.1,1.8-0.2,3c-0.2,1.3-0.6,2.5-1.3,3.7c-0.7,1.2-1.8,2.3-3.2,3.2c-1.5,0.9-3.5,1.3-6.1,1.3c-1.1,0-2.1-0.1-3.1-0.3
		c-1-0.2-1.9-0.5-2.6-1c-0.8-0.5-1.4-1.1-1.8-1.9c-0.4-0.8-0.7-1.8-0.7-3c0-1.3,0.2-2.3,0.7-3.1c0.4-0.8,1-1.5,1.8-2
		c0.7-0.5,1.6-1,2.5-1.3c1-0.3,2-0.6,3-0.8c1.1-0.2,2.1-0.3,3.2-0.5c1.1-0.1,2.1-0.3,3.1-0.5c1-0.2,1.9-0.4,2.7-0.7
		c0.8-0.3,1.6-0.7,2.1-1.2V996.1z M-607.8,947.6h-13.4v12.2h13.4V947.6z M-444.5,975.1v-9h-9.8v-12.5h-13.4v12.5l-2.6,0
		c-1.4,0-2.7,0.2-4,0.5c-0.4,0.1-0.8,0.2-1.1,0.3c-1.3,0.4-2.5,0.9-3.6,1.6c-0.2,0.1-0.4,0.2-0.6,0.4c-0.1,0-0.1,0.1-0.2,0.1
		c-0.1,0.1-0.2,0.1-0.2,0.2c-0.2,0.2-0.5,0.3-0.7,0.5c-0.1,0-0.1,0.1-0.2,0.1c-2.3,1.8-4.1,4.1-5.3,6.8l-0.1-10.6h-12.8v48.8h13.4
		l0-22.7c0-9.5,7.7-17.2,17.2-17.2c0.3,0,0.6,0,0.8,0v28.8c0,2.5,0.4,4.4,1.2,5.9c0.8,1.5,1.9,2.7,3.4,3.5c1.4,0.8,3.1,1.4,4.9,1.7
		c1.9,0.3,3.8,0.4,5.9,0.4c1.3,0,2.7,0,4.1-0.1c1.4-0.1,2.6-0.2,3.8-0.4v-10.4c-0.6,0.1-1.3,0.2-2,0.3c-0.7,0.1-1.4,0.1-2.2,0.1
		c-2.3,0-3.8-0.4-4.5-1.1c-0.8-0.8-1.1-2.3-1.1-4.5v-24.2H-444.5z M-683.9,981.3c0-18.6-15.1-33.7-33.7-33.7h-26
		c-18.6,0-33.7,15.1-33.7,33.7c0,18.6,15.1,33.7,33.7,33.7h13h23.4l23.3,23.3c0,0,0-41.1,0-56.8
		C-683.9,981.4-683.9,981.3-683.9,981.3z M-696.1,1002.8v6l-6-6h0l0,0h-41.5c-11.9,0-21.5-9.6-21.5-21.5c0-11.9,9.6-21.5,21.5-21.5
		h26c11.9,0,21.5,9.6,21.5,21.5v0l0,0v8.8V1002.8z"/>
</g>
<path id="HPTX_POSITIVO" class="st7" d="M-1147.4,947.6v67.4h-13.4v-67.4H-1147.4z M-1228.8,1015v-7.3l-0.3,0.5
	c-1.7,2.8-3.9,4.9-6.6,6.1c-2.7,1.3-5.5,1.9-8.3,1.9c-3.6,0-6.5-0.5-8.8-1.4c-2.3-0.9-4.1-2.3-5.4-4c-1.3-1.7-2.3-3.8-2.8-6.3
	c-0.5-2.5-0.8-5.2-0.8-8.3v-30h13.4v27.6c0,4,0.6,7,1.9,9c1.3,2,3.5,3,6.7,3c3.6,0,6.3-1.1,7.9-3.3c1.6-2.2,2.5-5.7,2.5-10.7v-25.6
	h13.4v48.8H-1228.8z M-1266.5,975.1v-9h-9.8v-12.5h-13.4v12.5h-17.7l-8.5,12.7l-8.6-12.7h-15.3l16.1,23.1l-17.6,25.7h15l10.2-15.4
	l10.2,15.4h15.3l-18-26l9.8-13.9h9.2v28.8c0,2.5,0.4,4.4,1.2,5.9c0.8,1.5,1.9,2.7,3.3,3.5c1.4,0.8,3.1,1.4,4.9,1.7
	c1.9,0.3,3.8,0.4,5.9,0.4c1.3,0,2.7,0,4.1-0.1c1.4-0.1,2.6-0.2,3.8-0.4v-10.4c-0.6,0.1-1.3,0.2-2,0.3c-0.7,0.1-1.4,0.1-2.2,0.1
	c-2.3,0-3.8-0.4-4.5-1.1c-0.8-0.8-1.1-2.3-1.1-4.5v-24.2H-1266.5z M-1337.7,983c-0.9-3.5-2.3-6.5-4.3-9.3c-2-2.7-4.5-4.9-7.6-6.5
	c-3.1-1.6-6.7-2.4-10.9-2.4c-3.7,0-7.1,0.7-10.2,2c-3.1,1.3-5.7,3.1-7.9,5.4c-2.2,2.3-3.9,5-5.1,8.2c-1.2,3.1-1.8,6.5-1.8,10.2
	c0,3.8,0.6,7.2,1.7,10.4c1.2,3.1,2.8,5.9,5,8.1c2.1,2.3,4.8,4,7.8,5.2c3.1,1.2,6.6,1.8,10.4,1.8c5.5,0,10.3-1.3,14.2-3.8
	c3.9-2.5,6.8-6.7,8.7-12.6h-11.8c-0.4,1.5-1.6,2.9-3.6,4.3c-2,1.4-4.3,2-7,2c-3.8,0-6.7-1-8.7-2.9c-2-2-3.1-5.1-3.3-9.4h35.2
	C-1336.5,990.1-1336.9,986.4-1337.7,983z M-1372,985.3c0.1-0.9,0.3-2,0.6-3.2c0.3-1.2,0.9-2.3,1.8-3.4c0.9-1.1,2-2,3.4-2.7
	c1.4-0.7,3.2-1.1,5.3-1.1c3.3,0,5.7,0.9,7.3,2.6c1.6,1.8,2.7,4.3,3.4,7.7H-1372z M-1444.9,983c-0.9-3.5-2.3-6.5-4.3-9.3
	c-2-2.7-4.5-4.9-7.6-6.5c-3.1-1.6-6.7-2.4-10.9-2.4c-3.7,0-7.1,0.7-10.2,2c-3.1,1.3-5.7,3.1-7.9,5.4c-2.2,2.3-3.9,5-5.1,8.2
	c-1.2,3.1-1.8,6.5-1.8,10.2c0,3.8,0.6,7.2,1.7,10.4c1.2,3.1,2.8,5.9,5,8.1c2.1,2.3,4.8,4,7.8,5.2c3.1,1.2,6.5,1.8,10.4,1.8
	c5.5,0,10.3-1.3,14.2-3.8c3.9-2.5,6.8-6.7,8.7-12.6h-11.8c-0.4,1.5-1.6,2.9-3.6,4.3c-2,1.4-4.3,2-7,2c-3.8,0-6.7-1-8.7-2.9
	c-2-2-3.1-5.1-3.3-9.4h35.2C-1443.7,990.1-1444,986.4-1444.9,983z M-1479.2,985.3c0.1-0.9,0.3-2,0.6-3.2c0.3-1.2,0.9-2.3,1.8-3.4
	c0.8-1.1,2-2,3.4-2.7c1.4-0.7,3.2-1.1,5.3-1.1c3.3,0,5.7,0.9,7.3,2.6c1.6,1.8,2.7,4.3,3.4,7.7H-1479.2z M-1496.7,981.1
	c-0.9-3.2-2.2-6-4.1-8.4c-1.8-2.4-4.1-4.3-6.9-5.8c-2.8-1.4-6.1-2.2-9.9-2.2c-3,0-5.8,0.6-8.3,1.8c-2.5,1.2-4.6,3.1-6.2,5.8
	l-0.2,0.3l0-6.5h-12.8v72.1h13.4l0-29.6l0.2,0.3c1.6,2.4,3.7,4.2,6.3,5.4c2.5,1.2,5.3,1.8,8.4,1.8c3.6,0,6.7-0.7,9.4-2.1
	c2.7-1.4,4.9-3.2,6.7-5.6c1.8-2.3,3.1-5,4-8c0.9-3,1.3-6.2,1.3-9.4C-1495.4,987.6-1495.8,984.3-1496.7,981.1z M-1508.9,996.5
	c-0.4,1.9-1,3.5-1.9,5c-0.9,1.4-2.1,2.6-3.6,3.4c-1.5,0.9-3.3,1.3-5.5,1.3c-2.1,0-4-0.4-5.5-1.3c-1.5-0.9-2.7-2-3.6-3.4
	c-0.9-1.4-1.6-3.1-2-5c-0.4-1.9-0.6-3.8-0.6-5.8c0-2,0.2-4,0.6-5.9c0.4-1.9,1-3.6,1.9-5c0.9-1.4,2.1-2.6,3.6-3.5
	c1.5-0.9,3.3-1.4,5.5-1.4c2.1,0,4,0.5,5.4,1.4c1.5,0.9,2.7,2.1,3.6,3.6c0.9,1.5,1.6,3.2,2,5.1c0.4,1.9,0.6,3.8,0.6,5.8
	C-1508.3,992.7-1508.5,994.6-1508.9,996.5z M-1549.7,966.2v48.8h-13.4v-48.8H-1549.7z M-1600.2,947.6l0,25.8l0.3-0.4
	c1.7-2.8,3.9-4.9,6.5-6.2c2.6-1.3,5.2-1.9,7.7-1.9c3.6,0,6.5,0.5,8.8,1.5c2.3,1,4.1,2.3,5.4,4.1c1.3,1.7,2.2,3.8,2.8,6.3
	c0.5,2.5,0.8,5.2,0.8,8.3v30h-13.4v-27.6c0-4-0.6-7-1.9-9c-1.3-2-3.5-3-6.7-3c-3.7,0-6.3,1.1-7.9,3.3c-1.6,2.2-2.5,5.7-2.5,10.7
	v25.6h-13.4v-67.4H-1600.2z M-1166.4,978.7c0-3-0.7-5.3-2-7.1c-1.3-1.8-3-3.2-5.1-4.2c-2.1-1-4.4-1.7-6.9-2c-2.5-0.3-5-0.5-7.5-0.5
	c-2.7,0-5.4,0.3-8.1,0.8c-2.7,0.5-5.1,1.4-7.2,2.7c-2.1,1.3-3.9,2.9-5.3,5c-1.4,2.1-2.2,4.7-2.4,7.8h13.4c0.3-2.6,1.1-4.5,2.6-5.7
	c1.5-1.1,3.6-1.7,6.2-1.7c1.2,0,2.3,0.1,3.4,0.2c1,0.2,1.9,0.5,2.7,0.9c0.8,0.5,1.4,1.1,1.9,2c0.5,0.8,0.7,2,0.7,3.4
	c0.1,1.4-0.3,2.4-1.2,3.2c-0.9,0.7-2.1,1.3-3.6,1.7c-1.5,0.4-3.2,0.7-5.2,0.8c-2,0.2-3.9,0.4-6,0.8c-2,0.3-4,0.7-6,1.3
	c-2,0.5-3.7,1.3-5.3,2.4c-1.5,1.1-2.8,2.5-3.8,4.3c-1,1.8-1.5,4.1-1.5,6.8c0,2.5,0.4,4.7,1.3,6.5c0.8,1.8,2,3.3,3.5,4.5
	c1.5,1.2,3.3,2.1,5.3,2.6c2,0.6,4.2,0.9,6.5,0.9c3,0,6-0.4,8.9-1.3c2.9-0.9,5.4-2.4,7.6-4.6v4.7h12.8V978.7z M-1179.8,996.1
	c0,0.8-0.1,1.8-0.2,3c-0.2,1.3-0.6,2.5-1.3,3.7c-0.7,1.2-1.8,2.3-3.2,3.2c-1.5,0.9-3.5,1.3-6.1,1.3c-1.1,0-2.1-0.1-3.1-0.3
	c-1-0.2-1.9-0.5-2.6-1c-0.8-0.5-1.4-1.1-1.8-1.9c-0.4-0.8-0.7-1.8-0.7-3c0-1.3,0.2-2.3,0.7-3.1c0.4-0.8,1-1.5,1.8-2
	c0.7-0.5,1.6-1,2.5-1.3c1-0.3,2-0.6,3-0.8c1.1-0.2,2.1-0.3,3.2-0.5c1.1-0.1,2.1-0.3,3.1-0.5c1-0.2,1.9-0.4,2.7-0.7
	c0.8-0.3,1.6-0.7,2.1-1.2V996.1z M-1549.7,947.6h-13.4v12.2h13.4V947.6z M-1386.4,975.1v-9h-9.8v-12.5h-13.4v12.5l-2.6,0
	c-1.4,0-2.7,0.2-4,0.5c-0.4,0.1-0.8,0.2-1.1,0.3c-1.3,0.4-2.5,0.9-3.6,1.6c-0.2,0.1-0.4,0.2-0.6,0.4c-0.1,0-0.1,0.1-0.2,0.1
	c-0.1,0.1-0.2,0.1-0.2,0.2c-0.2,0.2-0.5,0.3-0.7,0.5c-0.1,0-0.1,0.1-0.2,0.1c-2.3,1.8-4.1,4.1-5.3,6.8l-0.1-10.6h-12.8v48.8h13.4
	l0-22.7c0-9.5,7.7-17.2,17.2-17.2c0.3,0,0.6,0,0.8,0v28.8c0,2.5,0.4,4.4,1.2,5.9c0.8,1.5,1.9,2.7,3.4,3.5c1.4,0.8,3.1,1.4,4.9,1.7
	c1.9,0.3,3.8,0.4,5.9,0.4c1.3,0,2.7,0,4.1-0.1c1.4-0.1,2.6-0.2,3.8-0.4v-10.4c-0.6,0.1-1.3,0.2-2,0.3c-0.7,0.1-1.4,0.1-2.2,0.1
	c-2.3,0-3.8-0.4-4.5-1.1c-0.8-0.8-1.1-2.3-1.1-4.5v-24.2H-1386.4z M-1625.8,981.3c0-18.6-15.1-33.7-33.7-33.7h-26
	c-18.6,0-33.7,15.1-33.7,33.7c0,18.6,15.1,33.7,33.7,33.7h13h23.4l23.3,23.3c0,0,0-41.1,0-56.8
	C-1625.8,981.4-1625.8,981.3-1625.8,981.3z M-1638,1002.8v6l-6-6h0l0,0h-41.5c-11.9,0-21.5-9.6-21.5-21.5c0-11.9,9.6-21.5,21.5-21.5
	h26c11.9,0,21.5,9.6,21.5,21.5v0l0,0v8.8V1002.8z"/>
<g id="HPTX_ICONO">
	<rect x="-611.9" y="177.2" class="st6" width="240.9" height="240.9"/>
	<path class="st1" d="M-417.1,279.1c0-29.6-24-53.6-53.6-53.6H-512c-29.6,0-53.6,24-53.6,53.6c0,29.6,24,53.6,53.6,53.6h20.6h37.2
		l37,37c0,0,0-65.4,0-90.3C-417.1,279.3-417.1,279.2-417.1,279.1z M-436.5,313.4v9.6l-9.6-9.6h0l0,0H-512
		c-18.9,0-34.2-15.3-34.2-34.2c0-18.9,15.3-34.2,34.2-34.2h41.3c18.9,0,34.2,15.3,34.2,34.2v0l0,0v14V313.4z"/>
</g>
<g id="HPTX_ICONO_1_">
	<path class="st1" d="M96.4,35.8C96.4,16,80.8,0,61.6,0H34.8C15.6,0,0,16,0,35.8c0,19.8,15.6,35.8,34.8,35.8h13.4h24.2l24,24.7
		c0,0,0-43.7,0-60.4C96.4,36,96.4,35.9,96.4,35.8z M83.8,58.7v6.4l-6.2-6.4h0l0,0H34.8c-12.3,0-22.2-10.2-22.2-22.9
		c0-12.6,9.9-22.9,22.2-22.9h26.8c12.3,0,22.2,10.2,22.2,22.9v0l0,0v9.4V58.7z"/>
</g>
<g id="HPTX_COLOR">
	<path id="_x3C_Trazado_compuesto_x3E_" class="st4" d="M-1145.1,254.6V322h-13.4v-67.4H-1145.1z M-1226.4,322v-7.3l-0.3,0.5
		c-1.7,2.8-3.9,4.9-6.6,6.1c-2.7,1.3-5.5,1.9-8.3,1.9c-3.6,0-6.5-0.5-8.8-1.4c-2.3-0.9-4.1-2.3-5.4-4c-1.3-1.7-2.3-3.8-2.8-6.3
		c-0.5-2.5-0.8-5.2-0.8-8.3v-30h13.4v27.6c0,4,0.6,7,1.9,9c1.3,2,3.5,3,6.7,3c3.6,0,6.3-1.1,7.9-3.3c1.6-2.2,2.5-5.7,2.5-10.7v-25.6
		h13.4V322H-1226.4z M-1264.2,282.2v-9h-9.8v-12.5h-13.4v12.5h-17.7l-8.5,12.7l-8.6-12.7h-15.3l16.1,23.1L-1339,322h15l10.2-15.4
		l10.2,15.4h15.3l-18-26l9.8-13.9h9.2V311c0,2.5,0.4,4.4,1.2,5.9c0.8,1.5,1.9,2.7,3.4,3.5c1.4,0.8,3.1,1.4,4.9,1.7
		c1.9,0.3,3.8,0.4,5.9,0.4c1.3,0,2.7,0,4.1-0.1c1.4-0.1,2.6-0.2,3.8-0.4v-10.4c-0.6,0.1-1.3,0.2-2,0.3c-0.7,0.1-1.4,0.1-2.2,0.1
		c-2.3,0-3.8-0.4-4.5-1.1c-0.8-0.8-1.1-2.3-1.1-4.5v-24.2H-1264.2z M-1335.4,290c-0.9-3.5-2.3-6.5-4.3-9.3c-2-2.7-4.5-4.9-7.6-6.5
		c-3.1-1.6-6.7-2.4-10.9-2.4c-3.7,0-7.1,0.7-10.2,2c-3.1,1.3-5.7,3.1-7.9,5.4c-2.2,2.3-3.9,5-5.1,8.2c-1.2,3.1-1.8,6.5-1.8,10.2
		c0,3.8,0.6,7.2,1.7,10.4c1.2,3.1,2.8,5.9,5,8.1c2.1,2.3,4.8,4,7.8,5.2c3.1,1.2,6.5,1.8,10.4,1.8c5.5,0,10.3-1.3,14.2-3.8
		c3.9-2.5,6.8-6.7,8.7-12.6h-11.8c-0.4,1.5-1.6,2.9-3.6,4.3c-2,1.4-4.3,2-7,2c-3.8,0-6.7-1-8.7-2.9c-2-2-3.1-5.1-3.3-9.4h35.2
		C-1334.2,297.1-1334.5,293.5-1335.4,290z M-1369.7,292.4c0.1-0.9,0.3-2,0.6-3.2c0.3-1.2,0.9-2.3,1.8-3.4c0.8-1.1,2-2,3.4-2.7
		c1.4-0.7,3.2-1.1,5.3-1.1c3.3,0,5.7,0.9,7.3,2.6c1.6,1.8,2.7,4.3,3.4,7.7H-1369.7z M-1442.5,290c-0.9-3.5-2.3-6.5-4.3-9.3
		c-2-2.7-4.5-4.9-7.6-6.5c-3.1-1.6-6.7-2.4-10.9-2.4c-3.7,0-7.1,0.7-10.2,2c-3.1,1.3-5.7,3.1-7.9,5.4c-2.2,2.3-3.9,5-5.1,8.2
		c-1.2,3.1-1.8,6.5-1.8,10.2c0,3.8,0.6,7.2,1.7,10.4c1.2,3.1,2.8,5.9,5,8.1c2.1,2.3,4.8,4,7.8,5.2c3.1,1.2,6.5,1.8,10.4,1.8
		c5.5,0,10.3-1.3,14.2-3.8c3.9-2.5,6.8-6.7,8.7-12.6h-11.8c-0.4,1.5-1.6,2.9-3.6,4.3c-2,1.4-4.3,2-7,2c-3.8,0-6.7-1-8.7-2.9
		c-2-2-3.1-5.1-3.3-9.4h35.2C-1441.3,297.1-1441.7,293.5-1442.5,290z M-1476.8,292.4c0.1-0.9,0.3-2,0.6-3.2c0.3-1.2,0.9-2.3,1.8-3.4
		c0.8-1.1,2-2,3.4-2.7c1.4-0.7,3.2-1.1,5.3-1.1c3.3,0,5.7,0.9,7.3,2.6c1.6,1.8,2.7,4.3,3.4,7.7H-1476.8z M-1494.4,288.2
		c-0.9-3.2-2.2-6-4.1-8.4c-1.8-2.4-4.1-4.3-6.9-5.8c-2.8-1.4-6.1-2.2-9.9-2.2c-3,0-5.8,0.6-8.3,1.8c-2.5,1.2-4.6,3.1-6.2,5.8
		l-0.2,0.3l0-6.5h-12.8v72.1h13.4l0-29.6l0.2,0.3c1.6,2.4,3.7,4.2,6.3,5.4c2.5,1.2,5.3,1.8,8.4,1.8c3.6,0,6.7-0.7,9.4-2.1
		c2.7-1.4,4.9-3.2,6.7-5.6c1.8-2.3,3.1-5,4-8c0.9-3,1.3-6.2,1.3-9.5C-1493,294.7-1493.5,291.4-1494.4,288.2z M-1506.5,303.5
		c-0.4,1.9-1,3.5-1.9,5c-0.9,1.4-2.1,2.6-3.6,3.4c-1.5,0.9-3.3,1.3-5.5,1.3c-2.1,0-4-0.4-5.5-1.3c-1.5-0.9-2.7-2-3.6-3.4
		s-1.6-3.1-2-5c-0.4-1.9-0.6-3.8-0.6-5.8c0-2,0.2-4,0.6-5.9c0.4-1.9,1-3.6,1.9-5c0.9-1.4,2.1-2.6,3.6-3.5c1.5-0.9,3.3-1.4,5.5-1.4
		c2.1,0,3.9,0.5,5.4,1.4c1.5,0.9,2.7,2.1,3.6,3.6c0.9,1.5,1.6,3.2,2,5.1c0.4,1.9,0.6,3.8,0.6,5.8
		C-1506,299.7-1506.2,301.7-1506.5,303.5z M-1547.4,273.2V322h-13.4v-48.8H-1547.4z M-1597.8,254.6l0,25.8l0.3-0.4
		c1.7-2.8,3.9-4.9,6.5-6.2c2.6-1.3,5.2-1.9,7.7-1.9c3.6,0,6.5,0.5,8.8,1.5c2.3,1,4.1,2.3,5.4,4.1c1.3,1.7,2.2,3.8,2.8,6.3
		c0.5,2.5,0.8,5.2,0.8,8.3v30h-13.4v-27.6c0-4-0.6-7-1.9-9c-1.3-2-3.5-3-6.7-3c-3.7,0-6.3,1.1-7.9,3.3c-1.6,2.2-2.5,5.7-2.5,10.7
		V322h-13.4v-67.4H-1597.8z M-1164.1,285.8c0-3-0.7-5.3-2-7.1c-1.3-1.8-3-3.2-5.1-4.2c-2.1-1-4.4-1.7-6.9-2c-2.5-0.3-5-0.5-7.5-0.5
		c-2.7,0-5.4,0.3-8.1,0.8c-2.7,0.5-5.1,1.4-7.2,2.7c-2.1,1.3-3.9,2.9-5.3,5c-1.4,2.1-2.2,4.7-2.4,7.8h13.4c0.3-2.6,1.1-4.5,2.6-5.7
		c1.5-1.1,3.6-1.7,6.2-1.7c1.2,0,2.3,0.1,3.4,0.2c1,0.2,1.9,0.5,2.7,0.9c0.8,0.5,1.4,1.1,1.9,2c0.5,0.8,0.7,2,0.7,3.4
		c0.1,1.4-0.3,2.4-1.2,3.2c-0.9,0.7-2.1,1.3-3.6,1.7c-1.5,0.4-3.2,0.7-5.2,0.8c-2,0.2-3.9,0.4-6,0.8c-2,0.3-4,0.7-6,1.3
		c-2,0.5-3.7,1.3-5.3,2.4c-1.5,1.1-2.8,2.5-3.8,4.3c-1,1.8-1.5,4.1-1.5,6.9c0,2.5,0.4,4.7,1.3,6.5c0.8,1.8,2,3.3,3.5,4.5
		c1.5,1.2,3.3,2.1,5.3,2.6c2,0.6,4.2,0.9,6.5,0.9c3,0,6-0.4,8.9-1.3c2.9-0.9,5.4-2.4,7.6-4.6v4.7h12.8V285.8z M-1177.5,303.2
		c0,0.8-0.1,1.8-0.2,3c-0.2,1.3-0.6,2.5-1.3,3.7c-0.7,1.2-1.8,2.3-3.2,3.2c-1.5,0.9-3.5,1.3-6.1,1.3c-1.1,0-2.1-0.1-3.1-0.3
		c-1-0.2-1.9-0.5-2.7-1c-0.8-0.5-1.4-1.1-1.8-1.9c-0.4-0.8-0.7-1.8-0.7-3c0-1.3,0.2-2.3,0.7-3.1c0.4-0.8,1-1.5,1.7-2
		c0.7-0.5,1.6-1,2.6-1.3c1-0.3,2-0.6,3-0.8c1.1-0.2,2.1-0.3,3.2-0.5c1.1-0.1,2.1-0.3,3.1-0.5c1-0.2,1.9-0.4,2.7-0.7
		c0.9-0.3,1.6-0.7,2.1-1.2V303.2z M-1547.4,254.6h-13.4v12.2h13.4V254.6z M-1384,282.2v-9h-9.8v-12.5h-13.4v12.5l-2.6,0
		c-1.4,0-2.7,0.2-4,0.5c-0.4,0.1-0.8,0.2-1.1,0.3c-1.3,0.4-2.5,0.9-3.6,1.6c-0.2,0.1-0.4,0.2-0.6,0.4c-0.1,0-0.1,0.1-0.2,0.1
		c-0.1,0.1-0.2,0.1-0.2,0.2c-0.2,0.2-0.5,0.3-0.7,0.5c-0.1,0-0.1,0.1-0.2,0.1c-2.3,1.8-4.1,4.1-5.3,6.8l-0.1-10.6h-12.8V322h13.4
		l0-22.7c0-9.5,7.7-17.2,17.2-17.2c0.3,0,0.6,0,0.8,0V311c0,2.5,0.4,4.4,1.2,5.9c0.8,1.5,1.9,2.7,3.3,3.5c1.4,0.8,3.1,1.4,4.9,1.7
		c1.9,0.3,3.8,0.4,5.9,0.4c1.3,0,2.7,0,4.1-0.1c1.4-0.1,2.6-0.2,3.8-0.4v-10.4c-0.6,0.1-1.3,0.2-2,0.3c-0.7,0.1-1.4,0.1-2.2,0.1
		c-2.3,0-3.8-0.4-4.5-1.1c-0.8-0.8-1.1-2.3-1.1-4.5v-24.2H-1384z"/>
	<path class="st6" d="M-1623.5,288.3c0-18.6-15.1-33.7-33.7-33.7h-26c-18.6,0-33.7,15.1-33.7,33.7c0,18.6,15.1,33.7,33.7,33.7h13
		h23.4l23.3,23.3c0,0,0-41.1,0-56.8C-1623.5,288.5-1623.5,288.4-1623.5,288.3z M-1635.7,309.9v6l-6-6h0l0,0h-41.5
		c-11.9,0-21.5-9.6-21.5-21.5c0-11.9,9.6-21.5,21.5-21.5h26c11.9,0,21.5,9.6,21.5,21.5v0l0,0v8.8V309.9z"/>
</g>
</svg>
