<?xml version="1.0" encoding="utf-8"?>
<!-- Generator: Adobe Illustrator 21.0.2, SVG Export Plug-In . SVG Version: 6.00 Build 0)  -->
<svg version="1.1" id="Capa_1" xmlns="http://www.w3.org/2000/svg" xmlns:xlink="http://www.w3.org/1999/xlink" x="0px" y="0px"
	 viewBox="0 0 230.9 98.4" style="enable-background:new 0 0 230.9 98.4;" xml:space="preserve">
<style type="text/css">
	.st0{fill:#FFFFFF;}
</style>
<g id="HPTXT_VIP">
	<path class="st0" d="M119.8,72.1l-17.9-52.2h15l11,35.7h0.2l11-35.7h14.2l-17.7,52.2H119.8z M157.4,11.8V0h14.3v11.8H157.4z
		 M171.8,19.9v52.2h-14.3V19.9H171.8z M191.4,19.9v6.7h0.2c1.8-2.8,4-4.9,6.7-6.2c2.7-1.3,5.7-1.9,8.9-1.9c4.1,0,7.6,0.8,10.6,2.3
		s5.4,3.6,7.4,6.2s3.4,5.5,4.3,8.9c0.9,3.4,1.4,7,1.4,10.7c0,3.5-0.5,6.9-1.4,10.1s-2.4,6.1-4.3,8.6c-1.9,2.5-4.3,4.5-7.2,6
		s-6.2,2.2-10,2.2c-3.2,0-6.2-0.7-8.9-2c-2.7-1.3-5-3.2-6.7-5.8h-0.2v24.7h-14.3V19.9H191.4z M210.1,61.3c1.6-0.9,2.9-2.2,3.8-3.7
		c1-1.5,1.7-3.3,2.1-5.3c0.4-2,0.6-4.1,0.6-6.2c0-2.1-0.2-4.1-0.7-6.2c-0.4-2-1.2-3.8-2.2-5.4c-1-1.6-2.3-2.9-3.9-3.8
		c-1.6-1-3.5-1.5-5.8-1.5c-2.4,0-4.3,0.5-5.9,1.5s-2.9,2.2-3.8,3.8c-1,1.5-1.7,3.3-2.1,5.4c-0.4,2-0.6,4.1-0.6,6.3
		c0,2.1,0.2,4.1,0.7,6.2c0.4,2,1.1,3.8,2.1,5.3s2.3,2.7,3.9,3.7c1.6,0.9,3.6,1.4,5.9,1.4C206.5,62.7,208.5,62.3,210.1,61.3z"/>
	<path class="st0" d="M59.7,7.7h-26C15.1,7.7,0,22.8,0,41.4C0,60,15.1,75.1,33.7,75.1h36.4l23.3,23.3c0,0,0-41.3,0-57
		C93.4,22.8,78.3,7.7,59.7,7.7z M81.2,62.9v6l-6-6H33.7c-11.9,0-21.5-9.6-21.5-21.5c0-11.9,9.6-21.5,21.5-21.5h26
		c11.9,0,21.5,9.6,21.5,21.5V62.9z"/>
</g>
</svg>
